<svg id="Warstwa_1" data-name="Warstwa 1" xmlns="http://www.w3.org/2000/svg" viewBox="0 0 26.79 28.07"><defs><style>.cls-1{fill:#f4ae2e}</style></defs><path class="cls-1" d="M9.33 8.85a3.85 3.85 0 0 0-3.71 4c0 2.62 3.19 5.34 3.33 5.46a.6.6 0 0 0 .77 0c.14-.16 3.28-2.89 3.28-5.51a3.85 3.85 0 0 0-3.67-3.95zm0 8.15c-.95-.9-2.51-2.71-2.51-4.19A2.65 2.65 0 0 1 9.33 10a2.65 2.65 0 0 1 2.51 2.76c.01 1.52-1.56 3.33-2.51 4.24z"/><path class="cls-1" d="M9.33 11.07a1.42 1.42 0 1 0 1.42 1.42 1.43 1.43 0 0 0-1.42-1.42zm-.22 1.43a.22.22 0 0 1 .45 0c0 .24-.45.24-.45 0zm10.1-3.44a1.84 1.84 0 1 0 1.84 1.84 1.84 1.84 0 0 0-1.84-1.84zm0 2.48a.64.64 0 1 1 .64-.64.64.64 0 0 1-.64.64z"/><path class="cls-1" d="M24.1 6.87a.6.6 0 0 0-.38-.48l-5.22-2a.59.59 0 0 0-.45 0L13.4 6.3 8.75 4.36a.6.6 0 0 0-.45 0l-5.22 2a.6.6 0 0 0-.38.48l-2 16.21a.6.6 0 0 0 .79.64l6.08-2.08 5.67 2.07a.6.6 0 0 0 .41 0l5.67-2.08 6.08 2.08a.6.6 0 0 0 .79-.64zm-4.64 13.57a.59.59 0 0 0-.4 0l-5.66 2.08-5.66-2.07a.6.6 0 0 0-.4 0L2 22.29 3.84 7.38l4.67-1.82 4.66 1.94a.6.6 0 0 0 .46 0l4.66-2L23 7.37l1.88 14.9z"/><path class="cls-1" d="M18.9 13.84a.6.6 0 0 0-.73.43 5 5 0 0 1-6.08 3.56.6.6 0 1 0-.3 1.16 6.18 6.18 0 0 0 7.54-4.42.6.6 0 0 0-.43-.73z"/></svg>