<svg id="Warstwa_1" data-name="Warstwa 1" xmlns="http://www.w3.org/2000/svg" viewBox="0 0 22.81 22.33"><defs><style>.cls-1{fill:#f4ae2e}</style></defs><path class="cls-1" d="M3.93 17.09V8.31h14.86v1a2.33 2.33 0 0 1 1.4-.05V6.35a2.84 2.84 0 0 0-2.83-2.83h-.68V2.08a.7.7 0 0 0-1.4 0v1.43H7.44V2.08a.7.7 0 1 0-1.4 0v1.43h-.68a2.84 2.84 0 0 0-2.83 2.84v10.74a2.84 2.84 0 0 0 2.83 2.83h7.26a2.17 2.17 0 0 1 .67-1.28l.13-.12H5.36a1.44 1.44 0 0 1-1.43-1.43zm0-10.74a1.44 1.44 0 0 1 1.43-1.44h12a1.44 1.44 0 0 1 1.43 1.43v.57H3.93z"/><path class="cls-1" d="M20.07 16.3a.65.65 0 0 0 .06-.1.64.64 0 0 0 .07-.12.59.59 0 0 0 0-.13.43.43 0 0 0 0-.26.59.59 0 0 0 0-.13.71.71 0 0 0-.07-.12.65.65 0 0 0-.06-.09l-4.8-4.45a.7.7 0 1 0-1 1l4.25 3.93-4.25 3.93a.7.7 0 1 0 1 1l4.8-4.45zm-.96-5.45L17.92 12l1 1 1.11-1a.7.7 0 0 0-1-1z"/><path class="cls-1" d="M15.42 14.27l-1.11 1a.56.56 0 0 0-.06.1.63.63 0 0 0-.07.12.68.68 0 0 0 0 .13.73.73 0 0 0 0 .13.68.68 0 0 0 0 .13.59.59 0 0 0 0 .13.64.64 0 0 0 .07.12.67.67 0 0 0 .06.1l1.11 1 1-1-.63-.59.63-.59zm3.53 4.45l-1 1 1.19 1.1a.7.7 0 1 0 1-1z"/></svg>