<svg data-name="Warstwa 1" xmlns="http://www.w3.org/2000/svg" viewBox="0 0 87.67 29.45"><path d="M13.2 16.48l-3 .07V6.19l1.8-.48-.12-2.45H4.34l-.07 2.28 1 .58a.84.84 0 0 1 .47.37 2.62 2.62 0 0 1 .08.83v9.19l-1.51.41.12 2.52h12.32q.29-3.17.34-5.18l-1.85-.1zm11.71-9.84a6.57 6.57 0 0 0-3.34.82 5.39 5.39 0 0 0-2.17 2.35 8.06 8.06 0 0 0-.76 3.6 6.67 6.67 0 0 0 1.5 4.78 6 6 0 0 0 4.55 1.56A6.26 6.26 0 0 0 29.44 18a6.8 6.8 0 0 0 1.69-4.91q0-6.45-6.22-6.45zm2 8.52a10.37 10.37 0 0 1-.24 1.42 3.86 3.86 0 0 1-.77.28 3.71 3.71 0 0 1-.84.08 2 2 0 0 1-1.81-1.08 6.16 6.16 0 0 1-.64-3.1 15.55 15.55 0 0 1 .1-1.84A4.09 4.09 0 0 1 23 9.76a6.27 6.27 0 0 1 1.61-.22 2 2 0 0 1 1.81 1 5.76 5.76 0 0 1 .61 3 15.14 15.14 0 0 1-.1 1.62zm12.16-8.52a6.57 6.57 0 0 0-3.34.82 5.39 5.39 0 0 0-2.17 2.35 8.05 8.05 0 0 0-.76 3.6 6.67 6.67 0 0 0 1.5 4.78 6 6 0 0 0 4.55 1.56A6.26 6.26 0 0 0 43.59 18a6.8 6.8 0 0 0 1.69-4.91q.01-6.45-6.21-6.45zm2 8.52a10.22 10.22 0 0 1-.24 1.42 3.83 3.83 0 0 1-.77.28 3.72 3.72 0 0 1-.84.08 2 2 0 0 1-1.81-1.08 6.17 6.17 0 0 1-.64-3.1 15.76 15.76 0 0 1 .1-1.84 4.12 4.12 0 0 1 .26-1.16 6.26 6.26 0 0 1 1.61-.22 2 2 0 0 1 1.81 1 5.76 5.76 0 0 1 .61 3 15.14 15.14 0 0 1-.07 1.62zm13.72-8.52A4.89 4.89 0 0 0 53.1 7a5.6 5.6 0 0 0-1.6.91 4 4 0 0 0-.29-1.15q-.82 0-2.08.25t-2.39.42h-.5l-.12 1.8 1.08.58a1 1 0 0 1 .41.35 2 2 0 0 1 .07.68v11l-1.49.41.12 2.28h7.2l.1-1.68-1.42-.79a.82.82 0 0 1-.41-.34 2.14 2.14 0 0 1-.07-.7v-1.25h1.13A7.1 7.1 0 0 0 58 18.1a6.58 6.58 0 0 0 1.78-5 7.83 7.83 0 0 0-1.28-4.81 4.35 4.35 0 0 0-3.71-1.65zm.83 8.44a9.71 9.71 0 0 1-.32 1.45 4.5 4.5 0 0 1-1.82.31 4.61 4.61 0 0 1-1.75-.29V10a4.2 4.2 0 0 1 1.63-.41 2 2 0 0 1 1.76 1 5.36 5.36 0 0 1 .64 2.86 10.47 10.47 0 0 1-.14 1.63zM71.7 8.37a5.14 5.14 0 0 0-4.16-1.73 6.26 6.26 0 0 0-3.19.79 5.29 5.29 0 0 0-2.11 2.29 8 8 0 0 0-.74 3.59A6.81 6.81 0 0 0 63 18a5.51 5.51 0 0 0 4.33 1.7 9.74 9.74 0 0 0 2.86-.43 7.35 7.35 0 0 0 2.3-1.1L72 15.81a14.28 14.28 0 0 1-1.94.56 8.12 8.12 0 0 1-1.66.2 2.6 2.6 0 0 1-1.62-.47 3 3 0 0 1-.95-1.48l7.3-1.34a7.18 7.18 0 0 0-1.43-4.91zm-6.16 3.89A5.86 5.86 0 0 1 66 9.71a4.48 4.48 0 0 1 1.32-.19 1.89 1.89 0 0 1 1.31.42 1.84 1.84 0 0 1 .52 1.33zM82 6.71a11.74 11.74 0 0 0-2.45 1.56 12.54 12.54 0 0 0-.41-1.56 28.59 28.59 0 0 0-4.3.65 5 5 0 0 0-.7.12l-.07 1.8 1.06.58a1 1 0 0 1 .38.35 2 2 0 0 1 .07.68v5.83l-1.46.43.12 2.28h7.2l.1-1.7-1.41-.73a.93.93 0 0 1-.38-.36 2 2 0 0 1-.07-.67v-5.49a19 19 0 0 1 2.09-.12h1.27a14.16 14.16 0 0 0 .24-1.72q.1-1.07.12-2z" fill="#474952"/></svg>