<svg data-name="Warstwa 1" xmlns="http://www.w3.org/2000/svg" viewBox="0 0 20 20"><path d="M16.7 5.85a5.15 5.15 0 0 1-.9.3A2.79 2.79 0 0 0 16.55 5a.15.15 0 0 0-.21-.17 5.17 5.17 0 0 1-1.34.54h-.09a.36.36 0 0 1-.24-.09 2.8 2.8 0 0 0-1.85-.7 3 3 0 0 0-.89.14 2.72 2.72 0 0 0-1.83 2 3 3 0 0 0-.07 1 .1.1 0 0 1 0 .08.1.1 0 0 1-.08 0A7.35 7.35 0 0 1 4.9 5.1a.15.15 0 0 0-.24 0A2.81 2.81 0 0 0 5 8.56a2.51 2.51 0 0 1-.64-.25.15.15 0 0 0-.22.13A2.81 2.81 0 0 0 5.83 11h-.06a2.52 2.52 0 0 1-.47 0 .15.15 0 0 0-.17.19 2.81 2.81 0 0 0 2.22 1.91 5.17 5.17 0 0 1-2.9.88h-.32a.21.21 0 0 0-.21.16.22.22 0 0 0 .11.25 7.69 7.69 0 0 0 3.87 1 7.8 7.8 0 0 0 3.3-.7 7.29 7.29 0 0 0 2.42-1.81 7.94 7.94 0 0 0 1.48-2.48 7.83 7.83 0 0 0 .5-2.71.48.48 0 0 1 .18-.37 5.54 5.54 0 0 0 1.11-1.22.15.15 0 0 0-.18-.22z" fill="#fff"/></svg>