<svg id="Warstwa_1" data-name="Warstwa 1" xmlns="http://www.w3.org/2000/svg" viewBox="0 0 28.4 22.05"><defs><style>.cls-1{fill:#57585f}</style></defs><path class="cls-1" d="M9.18 11.12a.59.59 0 0 0 0 .84 4.26 4.26 0 1 1-2.94-1.18.59.59 0 0 0 0-1.18A5.44 5.44 0 1 0 10 11.1a.59.59 0 0 0-.82.02z"/><path class="cls-1" d="M12.93 12.75a.59.59 0 0 0 .15-.82L10.65 8.4h.27a.65.65 0 0 0 0-1.3L7.5 6.9a.66.66 0 0 0-.69.61.65.65 0 0 0 .61.69l1 .06L6 14a1 1 0 1 0 1.26 1 1 1 0 0 0-.17-.55l2.39-5.67 2.63 3.82a.59.59 0 0 0 .82.15zm9.2-3.15a.59.59 0 1 0 0 1.18 4.26 4.26 0 1 1-2.71 1 .59.59 0 0 0 .08-.83.59.59 0 0 0-.83-.08 5.44 5.44 0 1 0 3.46-1.27zM16 14.23v-.07a1.85 1.85 0 0 0-.18-.39 1.89 1.89 0 0 0-.1-.18 1.86 1.86 0 0 0-.25-.27 1.89 1.89 0 0 0-.19-.18 1.92 1.92 0 0 0-.26-.14 1.86 1.86 0 0 0-.31-.14h-.19a1.83 1.83 0 0 0-.35-.06 1.83 1.83 0 0 0-.35.06h-.19a1.82 1.82 0 0 0-.31.14 1.89 1.89 0 0 0-.26.14 1.85 1.85 0 0 0-.19.18 1.9 1.9 0 0 0-.25.27 2 2 0 0 0-.1.18 1.9 1.9 0 0 0-.18.39v.07a1.84 1.84 0 0 0-.06.37 1.83 1.83 0 0 0 .06.39V15a1.86 1.86 0 0 0 .17.39 1.94 1.94 0 0 0 .09.18 1.89 1.89 0 0 0 .2.22 1.9 1.9 0 0 0 .23.23h.05a1.9 1.9 0 0 0 .49.25v1.14a.59.59 0 0 0 .15 1.16h.88a.59.59 0 0 0 .15-1.16v-1a1.88 1.88 0 0 0 .5-.26 1.88 1.88 0 0 0 .23-.23 1.91 1.91 0 0 0 .2-.21 1.88 1.88 0 0 0 .09-.18 1.87 1.87 0 0 0 .17-.39V15a1.84 1.84 0 0 0 .06-.39 1.81 1.81 0 0 0 0-.38zm-1.85 1.1a.73.73 0 1 1 .73-.73.73.73 0 0 1-.68.73z"/><path class="cls-1" d="M21.28 14.46a1 1 0 0 0-.18.58 1 1 0 1 0 1.29-1l-3.67-9.79-.87-2.18A.65.65 0 0 0 17 1.6l-3 1a.65.65 0 1 0 .39 1.24L16.93 3l2 5.3-3.26 3.7a.59.59 0 0 0 0 .83.61.61 0 0 0 .83 0l2.89-3.25z"/></svg>