<svg data-name="Warstwa 1" xmlns="http://www.w3.org/2000/svg" viewBox="0 0 22.81 23"><path d="M7.25 19.83a1.94 1.94 0 0 1-1.91-2.26L6 13.94l-2.67-2.56A1.94 1.94 0 0 1 4.4 8.07L8 7.55l1.63-3.3a1.94 1.94 0 0 1 3.47 0l1.63 3.3 3.64.53a1.94 1.94 0 0 1 1.07 3.3l-2.63 2.57.62 3.62a1.93 1.93 0 0 1-.77 1.89 2 2 0 0 1-2 .15l-3.26-1.72-3.25 1.72a1.94 1.94 0 0 1-.9.22zM11.4 4.68a.41.41 0 0 0-.38.23L9.28 8.46a1 1 0 0 1-.75.54l-3.91.57a.42.42 0 0 0-.23.72L7.22 13a1 1 0 0 1 .28.88l-.67 3.89a.42.42 0 0 0 .61.44l3.5-1.84a1 1 0 0 1 .92 0l3.5 1.84a.42.42 0 0 0 .44 0 .41.41 0 0 0 .17-.41l-.67-3.89a1 1 0 0 1 .29-.88l2.83-2.76a.42.42 0 0 0-.23-.72L14.28 9a1 1 0 0 1-.75-.54l-1.75-3.54a.41.41 0 0 0-.38-.24zm-5.4 9zm2.3-6.17zm6.18 0z" fill="#f5ae2c"/></svg>