<svg id="Warstwa_1" data-name="Warstwa 1" xmlns="http://www.w3.org/2000/svg" viewBox="0 0 21.66 22.3"><defs><style>.cls-1{fill:#f5ae2c}</style></defs><path class="cls-1" d="M21 18a4.68 4.68 0 0 0-2-2 3.09 3.09 0 1 0-4.28 0 4.69 4.69 0 0 0-2 2 .7.7 0 1 0 1.25.65 3.3 3.3 0 0 1 5.86 0A.7.7 0 1 0 21 18zm-4.17-2.55a1.69 1.69 0 1 1 1.69-1.69 1.69 1.69 0 0 1-1.68 1.72z"/><path class="cls-1" d="M11.34 16.8H2l3.35-5.53h4.38a.7.7 0 0 0 0-1.4H6.16l3.16-5.22L10.74 7l2.4 4a.7.7 0 1 0 1.2-.73L13.56 9l-3-5a1.4 1.4 0 0 0-2.4 0L.77 16.07A1.4 1.4 0 0 0 2 18.2h9.38a.7.7 0 0 0 0-1.4z"/></svg>