<svg id="Warstwa_1" data-name="Warstwa 1" xmlns="http://www.w3.org/2000/svg" viewBox="0 0 21.66 22.3"><defs><style>.cls-1{fill:#f5ae2c}</style></defs><path class="cls-1" d="M7.85 10a.75.75 0 0 0-1.06 1.06l2.75 2.75a.75.75 0 0 0 1.06 0l4.27-4.27a.75.75 0 0 0-1.06-1.06l-3.74 3.74z"/><path class="cls-1" d="M18 4.86a27.52 27.52 0 0 1-6.62-2.81 1.11 1.11 0 0 0-1.13 0 26.76 26.76 0 0 1-6.61 2.81 1.11 1.11 0 0 0-.82 1.07v3.66a11.24 11.24 0 0 0 3.43 8.21c1.64 1.61 3.65 2.6 4.58 2.6s2.94-1 4.58-2.6a11.25 11.25 0 0 0 3.42-8.22V5.93A1.11 1.11 0 0 0 18 4.86zm-.68 4.72a9.78 9.78 0 0 1-3 7.14 7.85 7.85 0 0 1-3.53 2.17 7.84 7.84 0 0 1-3.49-2.16 9.78 9.78 0 0 1-3-7.14V6.23a28.23 28.23 0 0 0 6.5-2.77 29.1 29.1 0 0 0 6.5 2.77z"/></svg>