<svg data-name="Warstwa 1" xmlns="http://www.w3.org/2000/svg" viewBox="0 0 26.79 28.07"><path d="M17.15 13.5a7.17 7.17 0 0 0 .65-3c0-3.22-2-5.84-4.47-5.84s-4.48 2.6-4.48 5.82a7.16 7.16 0 0 0 .66 3c-4.18 1.26-6.4 3.94-6.4 7.79a.6.6 0 0 0 .6.6h19.24a.6.6 0 0 0 .6-.6c0-3.78-2.27-6.54-6.4-7.77zm-3.82-7.66c1.81 0 3.27 2.08 3.27 4.64s-1.47 4.64-3.27 4.64-3.28-2.12-3.28-4.64 1.47-4.64 3.28-4.64zm-9 14.87c.22-3.07 2.17-5.13 5.81-6.14a4 4 0 0 0 3.19 1.75 4 4 0 0 0 3.19-1.75c2.57.7 5.53 2.34 5.81 6.14z" fill="#f4ae2e"/></svg>