<svg id="Warstwa_1" data-name="Warstwa 1" xmlns="http://www.w3.org/2000/svg" viewBox="0 0 32.66 28.83"><defs><style>.cls-1{fill:#57585f;}</style></defs><title>biegowki_1</title><path class="cls-1" d="M26,11.92,24.6,9.47a.65.65,0,0,0-.76-.29l-1.5.49a.65.65,0,0,0,.4,1.24l1-.33,1.15,2A.65.65,0,0,0,26,11.92Z"/><path class="cls-1" d="M23.8,8.48a.65.65,0,1,0,1.14-.63L22.36,3.21a.65.65,0,1,0-1.14.63Z"/><path class="cls-1" d="M12.8,12.8a.65.65,0,0,0,.89-.24l1.15-2,1,.33a.65.65,0,0,0,.4-1.24l-1.5-.49a.65.65,0,0,0-.76.29l-1.42,2.44A.65.65,0,0,0,12.8,12.8Z"/><path class="cls-1" d="M13.9,8.73a.65.65,0,0,0,.88-.25l2.43-4.35a.65.65,0,1,0-1.13-.63L13.64,7.84A.65.65,0,0,0,13.9,8.73Z"/><path class="cls-1" d="M21.8,22.19,22,13.9h0a2.18,2.18,0,0,0-2.18-2.18H18.73a2.17,2.17,0,0,0-1.71.86l0,0-7,9.3h0L6.89,23.65a.65.65,0,0,0,.64,1.13l6.59-3.7a.65.65,0,0,0-.64-1.13l-.69.39L18,13.4h0a.88.88,0,0,1,.73-.39h1.12a.88.88,0,0,1,.88.88l-.19,7-.66-.66a.65.65,0,1,0-.92.92l4.57,4.57a.65.65,0,0,0,.92-.92Z"/><path class="cls-1" d="M19.29,11.39a2.51,2.51,0,1,0-2.51-2.51A2.51,2.51,0,0,0,19.29,11.39Zm0-3.71a1.21,1.21,0,1,1-1.21,1.21A1.21,1.21,0,0,1,19.29,7.68Z"/></svg>