<svg id="Warstwa_1" data-name="Warstwa 1" xmlns="http://www.w3.org/2000/svg" viewBox="0 0 22.81 22.33"><defs><style>.cls-1{fill:#f4ae2e;}</style></defs><title>elastic_date_active</title><path class="cls-1" d="M3.93,17.09V8.31H18.79v1a2.31,2.31,0,0,1,1.4-.05V6.35a2.85,2.85,0,0,0-2.84-2.84h-.68V2.08a.7.7,0,0,0-1.4,0V3.51H7.44V2.08a.7.7,0,0,0-1.4,0V3.51H5.36A2.84,2.84,0,0,0,2.53,6.35V17.09a2.83,2.83,0,0,0,2.83,2.83h7.26a2.17,2.17,0,0,1,.67-1.28l.13-.11H5.36A1.44,1.44,0,0,1,3.93,17.09Zm0-10.74A1.44,1.44,0,0,1,5.36,4.91h12a1.45,1.45,0,0,1,1.44,1.44v.56H3.93Z"/><path class="cls-1" d="M20.07,16.3h0s0-.07,0-.1a.5.5,0,0,0,.08-.12l0-.13a.51.51,0,0,0,0-.13.59.59,0,0,0,0-.13l0-.13a.83.83,0,0,0-.08-.12.73.73,0,0,0,0-.09l0,0s0,0,0,0l-4.8-4.45a.75.75,0,0,0-.48-.19.7.7,0,0,0-.47,1.22l4.24,3.93-4.24,3.93a.7.7,0,1,0,.95,1l4.8-4.45S20.07,16.31,20.07,16.3Z"/><path class="cls-1" d="M19.11,10.85,17.92,12l1,1,1.11-1a.7.7,0,0,0-.95-1Z"/><path class="cls-1" d="M15.42,14.27l-1.11,1,0,0,0,0s0,.06-.06.09a.37.37,0,0,0-.07.12.61.61,0,0,0,0,.13.59.59,0,0,0,0,.13.51.51,0,0,0,0,.13.5.5,0,0,0,0,.13.29.29,0,0,0,.07.12.53.53,0,0,0,.06.1h0l0,0,1.11,1,1-1-.64-.59.64-.59Z"/><path class="cls-1" d="M19,18.72l-1,1,1.19,1.1a.66.66,0,0,0,.47.19.7.7,0,0,0,.48-1.22Z"/></svg>