<svg id="Warstwa_1" data-name="Warstwa 1" xmlns="http://www.w3.org/2000/svg" viewBox="0 0 62.99 61.1"><defs><style>.cls-1{fill:#f4ae2e;}</style></defs><title>kluczowa_cecha_3</title><path class="cls-1" d="M41.68,27.82a3.64,3.64,0,0,0,.7-.31,3.64,3.64,0,0,0,.5-6V20.7c0-.42,0-.84,0-1.27a5.5,5.5,0,0,0,1.76-4.06,5.58,5.58,0,0,0-2.45-4.61,3.16,3.16,0,0,0,.66-1.94,3.21,3.21,0,0,0-3.2-3.21h-5A17.88,17.88,0,0,0,7.09,20.7v.72a3.65,3.65,0,0,0,.41,6.09,3.39,3.39,0,0,0,.7.31c0,.33.1.65.17,1a8,8,0,1,0,10,12.27,16.41,16.41,0,0,0,2.21.75,4.7,4.7,0,0,0,.19.92A14.84,14.84,0,0,0,11,52.15a1,1,0,0,0,.63,1.27,1.13,1.13,0,0,0,.32,0,1,1,0,0,0,.94-.68,12.85,12.85,0,0,1,9-8.29,4.32,4.32,0,0,0,6.12,0,12.84,12.84,0,0,1,6.62,4.13,1,1,0,0,0,.77.35,1,1,0,0,0,.76-1.65,14.91,14.91,0,0,0-7-4.6,4.61,4.61,0,0,0,.2-.91A16.82,16.82,0,0,0,41.68,27.82ZM25,4.81a15.77,15.77,0,0,1,8.74,2.64,1,1,0,0,0,.55.16h5.33a1.2,1.2,0,0,1,.3,2.37,1,1,0,0,0,0,1.94,3.56,3.56,0,0,1,1.27,6.29,1,1,0,0,0-.39.89c0,.22,0,.44.05.66a1,1,0,0,0-.05-.16,1,1,0,0,0-.94-.65H31.34a10.7,10.7,0,0,1-10.25-8.76,1,1,0,0,0-1-.82,1.12,1.12,0,0,0-.31.05A17,17,0,0,0,9.12,19.76,15.91,15.91,0,0,1,25,4.81ZM12.52,41.61A6,6,0,0,1,8.91,30.83a16.76,16.76,0,0,0,7.57,9.29A6,6,0,0,1,12.52,41.61Zm12.42,2.16a2.38,2.38,0,0,1-2.38-2.38,2.26,2.26,0,0,1,0-.26,1,1,0,0,0-.78-1.08A14.82,14.82,0,0,1,10.1,26.89a1,1,0,0,0-.91-.9,1.56,1.56,0,0,1-.7-.22,1.64,1.64,0,0,1,0-2.85l.14-.06A1.38,1.38,0,0,1,9,22.71a1.4,1.4,0,0,1,.34-.05h.13a1,1,0,0,0,.39-.05,1,1,0,0,0,.75-.73,14.94,14.94,0,0,1,8.82-10.2A12.74,12.74,0,0,0,31.3,20.94h7.85c.1.32.19.63.26.94a1,1,0,0,0,1.05.76h0l.07,0a1.55,1.55,0,0,1,.82.23,1.64,1.64,0,0,1,0,2.88,1.52,1.52,0,0,1-.69.22,1,1,0,0,0-.92.9A14.81,14.81,0,0,1,28.09,40.05a1,1,0,0,0-.79,1.08,2.28,2.28,0,0,1,0,.26A2.39,2.39,0,0,1,24.94,43.77Z"/><path class="cls-1" d="M18.35,23.64a1.5,1.5,0,1,0,1.5,1.5A1.5,1.5,0,0,0,18.35,23.64Z"/><path class="cls-1" d="M31.52,26.64a1.5,1.5,0,1,0-1.5-1.5A1.5,1.5,0,0,0,31.52,26.64Z"/><path class="cls-1" d="M29.53,34.67a1,1,0,0,0-1.66-1.12,3.53,3.53,0,0,1-5.85,0,1,1,0,0,0-1.66,1.13,5.55,5.55,0,0,0,9.17,0Z"/><path class="cls-1" d="M44.09,46a1,1,0,0,0-1.41,0,1,1,0,0,0,0,1.42l3.19,3.18a1,1,0,0,0,1.41,0l4.95-5a1,1,0,0,0,0-1.41,1,1,0,0,0-1.42,0l-4.24,4.24Z"/><path class="cls-1" d="M55.81,40.06h0a31.79,31.79,0,0,1-7.63-3.24,1.41,1.41,0,0,0-1.43,0,30.91,30.91,0,0,1-7.64,3.24,1.4,1.4,0,0,0-1,1.36v4.23a13.14,13.14,0,0,0,4,9.6c1.95,1.91,4.27,3,5.39,3s3.45-1.14,5.4-3a13.14,13.14,0,0,0,4-9.6V41.42A1.4,1.4,0,0,0,55.81,40.06Zm-1,5.59a11.15,11.15,0,0,1-3.39,8.17,9.15,9.15,0,0,1-4,2.48,9.11,9.11,0,0,1-4-2.48,11.15,11.15,0,0,1-3.4-8.17V41.86a32.47,32.47,0,0,0,7.39-3.14,34,34,0,0,0,7.39,3.14Z"/></svg>