<svg id="Warstwa_1" data-name="Warstwa 1" xmlns="http://www.w3.org/2000/svg" viewBox="0 0 92.46 61.1"><defs><style>.cls-1{fill:#f4ae2e;}</style></defs><title>kluczowa_cecha_2</title><path class="cls-1" d="M61.31,19.41h2.11a1,1,0,0,0,0-2H61.31a1.89,1.89,0,0,1,0-3.78h1.24a1,1,0,0,0,.25-.05.61.61,0,0,0,.13,0h0a1,1,0,0,0,.6-.81,2.72,2.72,0,0,1,5.41,0,.92.92,0,0,0,.09.28v0a.8.8,0,0,0,.15.21.4.4,0,0,0,.1.12l.09.07a1,1,0,0,0,.58.2h1.23a1.89,1.89,0,1,1,0,3.78h-2.3a1,1,0,0,0-.82.43l-2.29,3.3a1,1,0,0,0,.82,1.57,1,1,0,0,0,.82-.43l2-2.87h1.78a3.89,3.89,0,0,0,0-7.78h-.43a4.72,4.72,0,0,0-9,0h-.44a3.89,3.89,0,0,0,0,7.78Z"/><path class="cls-1" d="M86,49.39H81.52V45.65c2.72-1,4.18-6.12,4.18-11,0-4.39-1.49-14.93-5.18-14.93S75.33,30.3,75.33,34.69c0,4.84,1.47,9.94,4.19,11v3.74h-7.3l2-2.52a1,1,0,0,0-.16-1.4,1,1,0,0,0-1.41.16l-2.31,2.93L44.69,12.89l2.17-3a1,1,0,0,0-1.62-1.16l-1.78,2.47L41.68,8.71a1,1,0,1,0-1.62,1.16l2.17,3L16.59,48.56l-2.32-2.93a1,1,0,0,0-1.56,1.24l2,2.52H10.16a1,1,0,1,0,0,2H86a1,1,0,0,0,0-2Zm-8.67-14.7c0-6.17,2-12.75,3.18-12.93,1.15.18,3.19,6.76,3.19,12.93,0,5.59-1.88,9.15-3.18,9.15S77.33,40.28,77.33,34.69Zm-8.87,14.7H62.89L44.27,23.5a.1.1,0,0,0-.05,0,1,1,0,0,0-.76-.38,1,1,0,0,0-.77.38s0,0,0,0L24,49.39H18.45l25-34.78Zm-24-18.22,3.72,11.94-3.72,4.2Zm-2,18.22h-16l16-22.21ZM50.05,44a1,1,0,0,0,.21-1L46,29.28,60.42,49.39H45.29Z"/><path class="cls-1" d="M5.26,49.39H2.44a1,1,0,1,0,0,2H5.26a1,1,0,0,0,0-2Z"/></svg>