<svg id="Warstwa_1" data-name="Warstwa 1" xmlns="http://www.w3.org/2000/svg" viewBox="0 0 75.99 61.1"><defs><style>.cls-1{fill:#f4ae2e;}</style></defs><title>kluczowa_cecha_4</title><path class="cls-1" d="M69.14,21.91a1,1,0,0,0-.82-.39l-1.4.05-.32,0-.29-7.22a1,1,0,0,0-2,.08l.29,7.25-1.08.06-7.21.31-2.74-2.62a4.16,4.16,0,0,0-.73-2.94,3.37,3.37,0,0,0-.42-.5l.23-1.6A5.21,5.21,0,0,0,57.28,9.9h0a5.83,5.83,0,0,0,0-2,15.38,15.38,0,0,0,1.67-1.58A1,1,0,1,0,57.44,5c-.32.35-.65.67-1,1,0,0,0,0,0,0a4.61,4.61,0,0,0-3.11-2,5.11,5.11,0,0,0-5.64,4.48,5.5,5.5,0,0,0,0,1.62s0,0,0,.06a.53.53,0,0,0,0,.12,5.18,5.18,0,0,0,1.81,3.24l-.18,1.3-2.52-.5h0l.46-2.6a1.93,1.93,0,0,0-1.57-2.24l-3.92-.69a1.92,1.92,0,0,0-2.24,1.58l-.2,1.09L38.15,11a1,1,0,0,0-.75.13.92.92,0,0,0-.42.64L35.49,20a1,1,0,0,0,.72,1.11l1.36.33-.46,2.64a1.93,1.93,0,0,0,1.57,2.24L42.6,27h0l-.54,3.1-2.42,8.27-6.76,6.48-2,2a1,1,0,0,0,0,1.35l5.35,5.35a1,1,0,0,0,1.36,0l.6-.61A2.17,2.17,0,0,0,38.38,50l-1.1-1.38L44.16,42a2.6,2.6,0,0,0,.3-.36,2.92,2.92,0,0,0,.54-1L46.82,34l3.7,6.53V53.35a1,1,0,0,0,1,1H59a1,1,0,0,0,.68-.28,1,1,0,0,0,.28-.69V52.5a2.18,2.18,0,0,0-1.92-2.15l-1.81-.21V39.91a2.32,2.32,0,0,0,0-.46,2.73,2.73,0,0,0-.36-1.13l-4.28-7.55.85-4.84,1.4,1.39a.85.85,0,0,0,.39.24,1.26,1.26,0,0,0,.38.06l10.21-.45,1,25.58a1,1,0,0,0,1,1h0a1,1,0,0,0,1-1l-1-25.59H67l.14-.06c.33-.13.62-.26.7-.48l1.4-3.7A1,1,0,0,0,69.14,21.91Zm-2.9,1.64h.29a.53.53,0,0,0,.2,0H67l-.65,1.73-1.66,0-.08-1.65ZM39,13.24l-1.1,6.28-.36-.08,1.14-6.28Zm7.56,5.44a.94.94,0,0,0-.28.68.91.91,0,0,0,.28.68l4.22,4.23-1.14,6.5a1,1,0,0,0,.11.64l4.45,7.86a.89.89,0,0,1,.12.39.22.22,0,0,1,0,.08.52.52,0,0,1,0,.17v10l-1.91-.22V40.29a.94.94,0,0,0-.12-.47L47,30.5l-.17.1.15-.15a1,1,0,0,0-.7-.52l-2.2-.39L46.49,16.1l1.59.27.09,0h.08l1.48.26a1.21,1.21,0,0,0-.26.2.93.93,0,0,0-.26.68.92.92,0,0,0,.29.67l5.77,5.54A1,1,0,0,0,56,24l6.66-.29.07,1.63-7.8.33-7-7A1,1,0,0,0,46.56,18.68ZM39,24.39l2.44-13.83,3.93.71L42.94,25.08s0,0,0,0Zm4.14,15.69a.87.87,0,0,1-.18.36l-.05.07a.65.65,0,0,1-.11.12l-6.71,6.52-1.22-1.54,6.3-6a.86.86,0,0,0,.25-.42l2.26-7.73,1.78.31-2.31,8.35ZM36.91,51.46l-4-4,.54-.53,3.38,4.27A.27.27,0,0,1,36.91,51.46Zm15.53.93v-.76l5.42.63a.26.26,0,0,1,.19.13Zm2.87-42.8A3.12,3.12,0,0,1,52,12.41a2.72,2.72,0,0,1-2-1.55,13.83,13.83,0,0,0,5.34-1.65A2.42,2.42,0,0,1,55.31,9.59ZM52.62,5.83l.4,0A2.63,2.63,0,0,1,54.78,7s0,.1.08.14a11.78,11.78,0,0,1-5.21,1.72c0-.07,0-.14,0-.21A3.19,3.19,0,0,1,52.62,5.83Z"/><path class="cls-1" d="M11.06,36.94H27.47a4.83,4.83,0,1,0-4.72-5.8,1,1,0,0,0,2,.4,2.82,2.82,0,1,1,2.76,3.4H11.06a1,1,0,0,0,0,2Z"/><path class="cls-1" d="M9.1,35.94a1,1,0,0,0-1-1h-2a1,1,0,0,0,0,2h2A1,1,0,0,0,9.1,35.94Z"/><path class="cls-1" d="M22.34,38.25H8.42a1,1,0,0,0,0,2H22.34a1,1,0,1,0,0-2Z"/><path class="cls-1" d="M28,38.25H25.55a1,1,0,1,0,0,2H28a1,1,0,1,0,0-2Z"/></svg>