<svg id="Warstwa_1" data-name="Warstwa 1" xmlns="http://www.w3.org/2000/svg" viewBox="0 0 56.46 61.1"><defs><style>.cls-1{fill:#f4ae2e;}</style></defs><title>kluczowa_cecha_1</title><path class="cls-1" d="M46.17,23.94v-.79a17.81,17.81,0,0,0-2.07-8.33,6.12,6.12,0,0,0,1-3.42A6.19,6.19,0,0,0,39,5.21H27.84A18,18,0,0,0,10.29,23.15v.79a3.64,3.64,0,0,0-1.36,2.82,3.71,3.71,0,0,0,1.86,3.18,3.64,3.64,0,0,0,.7.31,16.79,16.79,0,0,0,12.38,14,4.08,4.08,0,0,0,.2.92,14.88,14.88,0,0,0-9.78,9.42,1,1,0,0,0,.63,1.26.87.87,0,0,0,.32.06,1,1,0,0,0,1-.68,12.82,12.82,0,0,1,9-8.29,4.32,4.32,0,0,0,6.12,0,12.82,12.82,0,0,1,9,8.29,1,1,0,0,0,.95.68.87.87,0,0,0,.32-.06,1,1,0,0,0,.63-1.26,14.88,14.88,0,0,0-9.78-9.42,4.08,4.08,0,0,0,.2-.92A16.79,16.79,0,0,0,45,30.25a3.64,3.64,0,0,0,.7-.31,3.68,3.68,0,0,0,1.86-3.18A3.64,3.64,0,0,0,46.17,23.94ZM27.9,7.22H39a4.18,4.18,0,0,1,3.2,6.88,1,1,0,0,0-.1,1.15,15.93,15.93,0,0,1,2.1,7,17,17,0,0,0-4.08-6.36,1,1,0,0,0-.7-.29h-9a4.18,4.18,0,0,1-4.12-3.47A1,1,0,0,0,25,11.31,17,17,0,0,0,12.31,22.22,16,16,0,0,1,27.9,7.22Zm16.78,21a1.69,1.69,0,0,1-.7.22,1,1,0,0,0-.91.9A14.83,14.83,0,0,1,31.38,42.48a1,1,0,0,0-.78,1.08,2.26,2.26,0,0,1,0,.26,2.38,2.38,0,1,1-4.76,0,2.17,2.17,0,0,1,0-.26,1,1,0,0,0-.78-1.08A14.83,14.83,0,0,1,13.39,29.32a1,1,0,0,0-.91-.9,1.74,1.74,0,0,1-.7-.22,1.64,1.64,0,0,1,0-2.88,1.58,1.58,0,0,1,.8-.23h.14a1,1,0,0,0,.36,0l.13-.06a1.48,1.48,0,0,0,.21-.13h0a1,1,0,0,0,.34-.53A14.92,14.92,0,0,1,24.51,13.48a6.18,6.18,0,0,0,5.83,4.11H39a15,15,0,0,1,3.72,6.75,1,1,0,0,0,1,.76h.11a1.6,1.6,0,0,1,.83.23h0a1.64,1.64,0,0,1,0,2.88Z"/><path class="cls-1" d="M21.65,26.07a1.5,1.5,0,1,0,1.5,1.5A1.5,1.5,0,0,0,21.65,26.07Z"/><path class="cls-1" d="M34.81,26.07a1.5,1.5,0,1,0,1.5,1.5A1.5,1.5,0,0,0,34.81,26.07Z"/><path class="cls-1" d="M31.16,36a3.53,3.53,0,0,1-5.85,0,1,1,0,0,0-1.65,1.13,5.54,5.54,0,0,0,9.16,0A1,1,0,1,0,31.16,36Z"/></svg>