<svg id="Warstwa_1" data-name="Warstwa 1" xmlns="http://www.w3.org/2000/svg" viewBox="0 0 67.92 24.71"><defs><style>.cls-1{fill:#c3c3cd;}</style></defs><title>logo_footer</title><path class="cls-1" d="M13.11,14.1l-2.06.05V7.09l1.21-.33L12.18,5.1H7.08L7,6.65,7.72,7A.62.62,0,0,1,8,7.29a2.22,2.22,0,0,1,.05.57v6.25l-1,.28.09,1.72h8.38c.13-1.44.2-2.62.22-3.53l-1.25-.07Z"/><path class="cls-1" d="M21.08,7.4A4.46,4.46,0,0,0,18.81,8a3.67,3.67,0,0,0-1.48,1.61A5.5,5.5,0,0,0,16.82,12a4.54,4.54,0,0,0,1,3.25,4.13,4.13,0,0,0,3.09,1.06,4.26,4.26,0,0,0,3.23-1.2,4.63,4.63,0,0,0,1.15-3.34Q25.31,7.4,21.08,7.4Zm1.37,5.8a7.32,7.32,0,0,1-.16,1,2.78,2.78,0,0,1-.52.19,2.52,2.52,0,0,1-.58.06A1.36,1.36,0,0,1,20,13.67a4.18,4.18,0,0,1-.43-2.11,11.44,11.44,0,0,1,.06-1.24,3.44,3.44,0,0,1,.18-.8,4.2,4.2,0,0,1,1.1-.14,1.35,1.35,0,0,1,1.23.68,3.91,3.91,0,0,1,.42,2A8.9,8.9,0,0,1,22.45,13.2Z"/><path class="cls-1" d="M30.72,7.4A4.46,4.46,0,0,0,28.45,8,3.61,3.61,0,0,0,27,9.56,5.5,5.5,0,0,0,26.45,12a4.54,4.54,0,0,0,1,3.25,4.17,4.17,0,0,0,3.1,1.06,4.28,4.28,0,0,0,3.23-1.2A4.67,4.67,0,0,0,35,11.78Q35,7.4,30.72,7.4Zm1.37,5.8a7.32,7.32,0,0,1-.16,1,2.62,2.62,0,0,1-.53.19,2.37,2.37,0,0,1-.57.06,1.36,1.36,0,0,1-1.23-.74,4.18,4.18,0,0,1-.43-2.11,11.44,11.44,0,0,1,.06-1.24,2.64,2.64,0,0,1,.18-.8,4.2,4.2,0,0,1,1.1-.14,1.35,1.35,0,0,1,1.23.68,3.92,3.92,0,0,1,.41,2A11.13,11.13,0,0,1,32.09,13.2Z"/><path class="cls-1" d="M41.42,7.4a3.33,3.33,0,0,0-1.15.21,3.83,3.83,0,0,0-1.09.62,2.62,2.62,0,0,0-.2-.78c-.37,0-.84.08-1.41.17s-1.11.19-1.63.29l-.18,0L35.6,8,35.52,9.2l.73.39c.16.09.25.16.28.23a1.25,1.25,0,0,1,0,.47v7.5l-1,.28.08,1.55h4.9l.07-1.15-1-.53a.69.69,0,0,1-.28-.23,1.69,1.69,0,0,1,0-.48v-.9c.34,0,.6,0,.76,0a4.84,4.84,0,0,0,3.5-1.17,4.46,4.46,0,0,0,1.21-3.37,5.29,5.29,0,0,0-.88-3.28A2.93,2.93,0,0,0,41.42,7.4ZM42,13.14a6.17,6.17,0,0,1-.22,1,3.79,3.79,0,0,1-2.43,0V9.7a2.91,2.91,0,0,1,1.11-.28,1.35,1.35,0,0,1,1.2.69,3.65,3.65,0,0,1,.43,1.94A7.16,7.16,0,0,1,42,13.14Z"/><path class="cls-1" d="M52.93,8.58A3.49,3.49,0,0,0,50.09,7.4a4.24,4.24,0,0,0-2.17.54A3.63,3.63,0,0,0,46.48,9.5,5.39,5.39,0,0,0,46,11.94a4.63,4.63,0,0,0,1,3.2,3.73,3.73,0,0,0,3,1.16A6.81,6.81,0,0,0,51.9,16a5.1,5.1,0,0,0,1.57-.75l-.37-1.62a9.89,9.89,0,0,1-1.33.38,5,5,0,0,1-1.12.14,1.74,1.74,0,0,1-1.11-.32,2,2,0,0,1-.64-1l5-.92A4.88,4.88,0,0,0,52.93,8.58Zm-4.19,2.64a3.84,3.84,0,0,1,.31-1.73,2.9,2.9,0,0,1,.89-.13,1.27,1.27,0,0,1,.89.28,1.29,1.29,0,0,1,.36.91Z"/><path class="cls-1" d="M60,7.45a7.9,7.9,0,0,0-1.67,1.06A8.28,8.28,0,0,0,58,7.45a19.49,19.49,0,0,0-2.92.44,3.55,3.55,0,0,0-.47.08l0,1.23.72.39a.77.77,0,0,1,.26.23,1.51,1.51,0,0,1,.05.47v4l-1,.29.08,1.56h4.9L59.65,15l-1-.53a.61.61,0,0,1-.26-.24,1.22,1.22,0,0,1,0-.46V10a14,14,0,0,1,1.42-.08l.86,0a9.55,9.55,0,0,0,.17-1.16c0-.49.07-.94.08-1.35Z"/></svg>