<svg id="Warstwa_1" data-name="Warstwa 1" xmlns="http://www.w3.org/2000/svg" viewBox="0 0 87.67 29.45"><defs><style>.cls-1{fill:#474952;}</style></defs><title>logo_top</title><path class="cls-1" d="M13.2,16.48l-3,.07V6.19L12,5.71l-.12-2.45H4.34L4.27,5.54l1,.57a.86.86,0,0,1,.47.38,2.77,2.77,0,0,1,.08.82v9.2l-1.51.4.12,2.52H16.75c.19-2.11.31-3.84.34-5.18l-1.85-.1Z"/><path class="cls-1" d="M24.91,6.64a6.47,6.47,0,0,0-3.33.82A5.4,5.4,0,0,0,19.4,9.81a8.09,8.09,0,0,0-.75,3.6,6.68,6.68,0,0,0,1.5,4.78,6,6,0,0,0,4.55,1.56A6.25,6.25,0,0,0,29.44,18a6.82,6.82,0,0,0,1.69-4.91Q31.13,6.65,24.91,6.64Zm2,8.52a12.5,12.5,0,0,1-.24,1.42,3.39,3.39,0,0,1-.77.27,3.49,3.49,0,0,1-.84.09,2,2,0,0,1-1.81-1.08,6.1,6.1,0,0,1-.64-3.1,14.2,14.2,0,0,1,.1-1.83A4.1,4.1,0,0,1,23,9.76a6.47,6.47,0,0,1,1.61-.21,2,2,0,0,1,1.81,1,5.78,5.78,0,0,1,.61,3A15.92,15.92,0,0,1,26.93,15.16Z"/><path class="cls-1" d="M39.07,6.64a6.47,6.47,0,0,0-3.33.82,5.4,5.4,0,0,0-2.18,2.35,8.09,8.09,0,0,0-.75,3.6,6.68,6.68,0,0,0,1.5,4.78,6,6,0,0,0,4.55,1.56A6.21,6.21,0,0,0,43.59,18a6.78,6.78,0,0,0,1.7-4.91Q45.29,6.65,39.07,6.64Zm2,8.52a12.5,12.5,0,0,1-.24,1.42,3.39,3.39,0,0,1-.77.27,3.49,3.49,0,0,1-.84.09,2,2,0,0,1-1.81-1.08,6.1,6.1,0,0,1-.64-3.1,14.2,14.2,0,0,1,.1-1.83,4.1,4.1,0,0,1,.26-1.17,6.41,6.41,0,0,1,1.61-.21,2,2,0,0,1,1.81,1,5.78,5.78,0,0,1,.61,3A15.92,15.92,0,0,1,41.09,15.16Z"/><path class="cls-1" d="M54.79,6.64A5.08,5.08,0,0,0,53.1,7a5.72,5.72,0,0,0-1.6.92,3.94,3.94,0,0,0-.29-1.16c-.54,0-1.23.12-2.07.26s-1.64.27-2.39.42l-.26,0-.24.05-.12,1.8,1.08.58c.22.13.36.24.4.35a1.86,1.86,0,0,1,.08.68v11l-1.49.4.12,2.28h7.2l.09-1.68-1.41-.79a.81.81,0,0,1-.41-.33,2.16,2.16,0,0,1-.07-.7V19.77c.51,0,.89.05,1.13.05A7.05,7.05,0,0,0,58,18.1a6.53,6.53,0,0,0,1.78-5,7.83,7.83,0,0,0-1.29-4.82A4.35,4.35,0,0,0,54.79,6.64Zm.83,8.44a9.56,9.56,0,0,1-.33,1.45,5.46,5.46,0,0,1-3.57,0V10a4.05,4.05,0,0,1,1.63-.41,2,2,0,0,1,1.76,1,5.28,5.28,0,0,1,.64,2.85A10.22,10.22,0,0,1,55.62,15.08Z"/><path class="cls-1" d="M71.7,8.37a5.15,5.15,0,0,0-4.17-1.73,6.34,6.34,0,0,0-3.19.79,5.35,5.35,0,0,0-2.11,2.3,7.92,7.92,0,0,0-.74,3.58A6.81,6.81,0,0,0,63,18a5.53,5.53,0,0,0,4.33,1.7,9.73,9.73,0,0,0,2.86-.43,7.58,7.58,0,0,0,2.3-1.1L72,15.81a13.59,13.59,0,0,1-1.94.56,8,8,0,0,1-1.66.21,2.62,2.62,0,0,1-1.62-.47,3,3,0,0,1-1-1.48l7.3-1.34A7.15,7.15,0,0,0,71.7,8.37Zm-6.16,3.89A5.88,5.88,0,0,1,66,9.71a4.68,4.68,0,0,1,1.32-.19,1.91,1.91,0,0,1,1.31.42,1.85,1.85,0,0,1,.51,1.33Z"/><path class="cls-1" d="M82,6.71a12,12,0,0,0-2.45,1.56,12.28,12.28,0,0,0-.41-1.56,29.69,29.69,0,0,0-4.29.65,6.44,6.44,0,0,0-.7.12l-.07,1.8,1.06.58a1,1,0,0,1,.38.35,1.94,1.94,0,0,1,.07.68v5.83l-1.46.43.12,2.28h7.2l.09-1.7L80.13,17a1,1,0,0,1-.38-.36,1.94,1.94,0,0,1-.07-.67V10.48a18.84,18.84,0,0,1,2.09-.12c.27,0,.69,0,1.27.05a16.55,16.55,0,0,0,.24-1.72q.09-1.06.12-2Z"/></svg>