<svg id="Warstwa_1" data-name="Warstwa 1" xmlns="http://www.w3.org/2000/svg" viewBox="0 0 20 20"><defs><style>.cls-1{fill:#c2c2cc;}</style></defs><title>ms_twitter_1</title><path class="cls-1" d="M16.7,5.85a4.66,4.66,0,0,1-.89.3A2.82,2.82,0,0,0,16.55,5h0a.15.15,0,0,0-.22-.17h0A5.27,5.27,0,0,1,15,5.37l-.09,0a.39.39,0,0,1-.24-.1,2.8,2.8,0,0,0-1.85-.7,3.06,3.06,0,0,0-.89.14,2.71,2.71,0,0,0-1.83,2,3,3,0,0,0-.06,1,.15.15,0,0,1,0,.08.11.11,0,0,1-.08,0h0a7.31,7.31,0,0,1-5.05-2.7h0a.15.15,0,0,0-.24,0h0a2.8,2.8,0,0,0,.46,3.41,2.5,2.5,0,0,1-.64-.25h0a.15.15,0,0,0-.22.13h0A2.8,2.8,0,0,0,5.83,11H5.77a2.42,2.42,0,0,1-.47,0h0a.15.15,0,0,0-.17.19h0a2.81,2.81,0,0,0,2.22,1.91,5.23,5.23,0,0,1-2.9.88H4.13a.21.21,0,0,0-.21.16.21.21,0,0,0,.1.24,7.65,7.65,0,0,0,3.87,1.05,7.84,7.84,0,0,0,3.3-.7,7.4,7.4,0,0,0,2.42-1.81,8.09,8.09,0,0,0,1.48-2.48,7.83,7.83,0,0,0,.5-2.72v0a.49.49,0,0,1,.18-.37,5.65,5.65,0,0,0,1.12-1.22h0a.15.15,0,0,0-.19-.22Z"/></svg>