<svg id="Warstwa_1" data-name="Warstwa 1" xmlns="http://www.w3.org/2000/svg" viewBox="0 0 15.51 13.93"><defs><style>.cls-1{fill:#b7b8c4;}</style></defs><title>notification_type_2</title><path class="cls-1" d="M13.4,5.51A4.17,4.17,0,0,0,5.19,4.4a4.19,4.19,0,1,0,5.13,5.13,4.12,4.12,0,0,0,3.08-4Zm-9.14,5a2.87,2.87,0,0,1,0-4.08,2.75,2.75,0,0,1,.8-.56A4.09,4.09,0,0,0,8.9,9.66a2.75,2.75,0,0,1-.56.8A3,3,0,0,1,4.26,10.46ZM6.33,5.53a2.87,2.87,0,0,1,2,.85,2.79,2.79,0,0,1,.84,2A2.82,2.82,0,0,1,6.33,5.53Zm4.93,2a3,3,0,0,1-.8.54,4.17,4.17,0,0,0-1.2-2.63,4.12,4.12,0,0,0-2.64-1.2,3.08,3.08,0,0,1,.55-.8,2.89,2.89,0,0,1,4.09,4.09Z"/></svg>