<svg id="Warstwa_1" data-name="Warstwa 1" xmlns="http://www.w3.org/2000/svg" viewBox="0 0 15.51 13.93"><defs><style>.cls-1{fill:#b7b8c4;}</style></defs><title>notification_type_message</title><path class="cls-1" d="M3.28,12.52a1,1,0,0,1-.42-.09,1,1,0,0,1-.63-.95V3.93A2.54,2.54,0,0,1,4.78,1.4h6a2.54,2.54,0,0,1,2.53,2.53V8.32a2.54,2.54,0,0,1-2.53,2.54H5.51l-.1.1L4,12.25A1,1,0,0,1,3.28,12.52ZM4.78,2.7A1.24,1.24,0,0,0,3.53,3.93v7l1-.92.1-.09a2.81,2.81,0,0,1,.27-.23.67.67,0,0,1,.29-.1h5.56A1.24,1.24,0,0,0,12,8.32V3.93A1.22,1.22,0,0,0,10.76,2.7Z"/></svg>