<svg id="Warstwa_1" data-name="Warstwa 1" xmlns="http://www.w3.org/2000/svg" viewBox="0 0 17.99 18.95"><defs><style>.cls-1{fill:#a9aab9;}</style></defs><title>notification_topmenu</title><path class="cls-1" d="M16.64,7.47A5.62,5.62,0,0,0,5.57,6.05a5.64,5.64,0,1,0,6.85,6.85,5.58,5.58,0,0,0,4.22-5.43ZM7,7.35a4.13,4.13,0,0,1,4.14,4.14s0,.06,0,.1A4.1,4.1,0,0,1,6.88,7.36ZM4.06,14.41a4.15,4.15,0,0,1,0-5.85,4.37,4.37,0,0,1,1.33-.89,5.57,5.57,0,0,0,5.41,5.41,4.37,4.37,0,0,1-.89,1.33A4.15,4.15,0,0,1,4.06,14.41Zm8.54-3.13A5.57,5.57,0,0,0,7.19,5.87a4.25,4.25,0,0,1,.89-1.33,4.14,4.14,0,1,1,4.52,6.74Z"/></svg>