<svg id="Warstwa_1" data-name="Warstwa 1" xmlns="http://www.w3.org/2000/svg" viewBox="0 0 21.66 22.3"><defs><style>.cls-1{fill:#a9aab9;}</style></defs><title>place_search</title><path class="cls-1" d="M10.83,1.28A8.08,8.08,0,0,0,2.76,9.35c0,5.47,7.32,11.28,7.64,11.52a.68.68,0,0,0,.43.15.7.7,0,0,0,.43-.15c.31-.24,7.63-6.05,7.63-11.52A8.07,8.07,0,0,0,10.83,1.28Zm0,18.13c-1.54-1.3-6.67-6-6.67-10.06a6.67,6.67,0,1,1,13.33,0C17.49,13.44,12.37,18.11,10.83,19.41Z"/><path class="cls-1" d="M10.83,7.17a1.5,1.5,0,1,0,1.5,1.5A1.5,1.5,0,0,0,10.83,7.17Z"/></svg>