<svg id="Warstwa_1" data-name="Warstwa 1" xmlns="http://www.w3.org/2000/svg" viewBox="0 0 25.8 27.17"><defs><style>.cls-1{fill:#57585f;}</style></defs><title>pociag_1</title><path class="cls-1" d="M12.9,14.68A20,20,0,0,0,16,14.46c1.51-.25,2.27-.72,2.27-1.39L18,8.29a1.57,1.57,0,0,0-1.57-1.47h-7A1.57,1.57,0,0,0,7.84,8.29l-.3,4.83C7.54,14.53,11.29,14.68,12.9,14.68ZM8.8,12.92l.28-4.56a.32.32,0,0,1,.32-.3h7a.32.32,0,0,1,.32.3L17,12.92a11.82,11.82,0,0,1-4.09.52A11.81,11.81,0,0,1,8.8,12.92Z"/><path class="cls-1" d="M8.64,16.27a1.57,1.57,0,1,0,1.57,1.57A1.57,1.57,0,0,0,8.64,16.27Zm0,1.25a.32.32,0,1,1-.32.32A.32.32,0,0,1,8.64,17.52Z"/><path class="cls-1" d="M17.15,16.27a1.57,1.57,0,1,0,1.57,1.57A1.57,1.57,0,0,0,17.15,16.27Zm.32,1.57a.32.32,0,1,1-.32-.32A.32.32,0,0,1,17.48,17.84Z"/><path class="cls-1" d="M14.32,17.22H11.48a.62.62,0,1,0,0,1.25h2.84a.62.62,0,1,0,0-1.25Z"/><path class="cls-1" d="M21.41,24.06,19,21.25c.86-.36,1.61-.86,1.61-1.56L19.79,7.27a2.52,2.52,0,0,0-2.51-2.35H14l.85-1.42v0a4.07,4.07,0,0,1,1.84.61.62.62,0,0,0,.92-.84c-.11-.12-1.15-1.15-4.72-1.15s-4.61,1-4.72,1.15a.62.62,0,0,0,0,.86.63.63,0,0,0,.87,0,4,4,0,0,1,1.85-.62v0l.85,1.42H8.52A2.52,2.52,0,0,0,6,7.27L5.18,19.74c0,.62.64,1.13,1.61,1.52l-2.4,2.8a.62.62,0,1,0,.95.81L6,24.14H19.84l.62.73a.62.62,0,0,0,.47.22.63.63,0,0,0,.41-.15.62.62,0,0,0,.07-.88ZM7.69,22.25H18.1l.1,0,.57.67H7l.57-.67ZM12.9,21c-3.73,0-6.17-1-6.47-1.28L7.25,7.35A1.27,1.27,0,0,1,8.52,6.17h8.76a1.27,1.27,0,0,1,1.27,1.18l.83,12.29C19.12,20,16.8,21,12.9,21Zm0-16.67-.59-1,.59,0,.59,0Z"/></svg>