<svg id="Warstwa_1" data-name="Warstwa 1" xmlns="http://www.w3.org/2000/svg" viewBox="0 0 22.81 23"><defs><style>.cls-1{fill:#f5ae2c;}</style></defs><title>star_testimonial_1</title><path class="cls-1" d="M7.25,19.83a1.94,1.94,0,0,1-1.91-2.26L6,13.94,3.33,11.38A1.94,1.94,0,0,1,4.4,8.07L8,7.55l1.63-3.3a1.93,1.93,0,0,1,3.47,0l1.63,3.3,3.64.52a1.94,1.94,0,0,1,1.07,3.31l-2.63,2.56.62,3.63a1.93,1.93,0,0,1-.77,1.89,2,2,0,0,1-2,.15L11.4,17.89,8.15,19.61A1.93,1.93,0,0,1,7.25,19.83ZM11.4,4.68a.4.4,0,0,0-.37.24L9.28,8.46A1,1,0,0,1,8.53,9l-3.91.57a.42.42,0,0,0-.34.29.4.4,0,0,0,.11.43l2.83,2.76a1,1,0,0,1,.28.88l-.67,3.89a.43.43,0,0,0,.62.45l3.49-1.84a1,1,0,0,1,.92,0l3.5,1.85a.43.43,0,0,0,.45,0,.4.4,0,0,0,.16-.41l-.66-3.89a1,1,0,0,1,.28-.88l2.83-2.76a.4.4,0,0,0,.11-.43.42.42,0,0,0-.34-.29L14.28,9a1,1,0,0,1-.75-.54L11.78,4.92A.41.41,0,0,0,11.4,4.68ZM6,13.67H6Zm2.3-6.16Zm6.18,0h0Z"/></svg>