<svg id="Warstwa_1" data-name="Warstwa 1" xmlns="http://www.w3.org/2000/svg" viewBox="0 0 24.54 22.33"><defs><style>.cls-1{fill:#f4ae2e;}</style></defs><title>transport</title><path class="cls-1" d="M18.41,8.24A14.13,14.13,0,0,0,10,5.51a14.79,14.79,0,0,0-5.17.91H2.72a.66.66,0,0,0-.46,1.12l.3.3a4.47,4.47,0,0,0-1.4,3.33c0,.93,0,3.23,1.1,3.73A2.91,2.91,0,0,0,7.7,15h8.23a2.92,2.92,0,0,0,5.41,0h.47a1.67,1.67,0,0,0,1.57-1.56V11.62C23.38,10.7,21.9,8.35,18.41,8.24Zm.22,4A1.62,1.62,0,1,1,17,13.89,1.62,1.62,0,0,1,18.63,12.28Zm0-1.31a2.93,2.93,0,0,0-2.91,2.72H7.9a2.91,2.91,0,0,0-5.39-1.33c0-.32,0-.71,0-1.19A3.28,3.28,0,0,1,3.91,8.4a.65.65,0,0,0,.26-.48.61.61,0,0,0,0-.19H5a.74.74,0,0,0,.25-.05A13.2,13.2,0,0,1,10,6.82a12.75,12.75,0,0,1,7.76,2.57.67.67,0,0,0,.43.16c2.79,0,3.88,1.77,3.89,2.07v1.82c0,.09-.2.24-.26.25h-.27A2.92,2.92,0,0,0,18.63,11ZM5,12.28a1.62,1.62,0,1,1-1.61,1.61A1.61,1.61,0,0,1,5,12.28Z"/></svg>