<svg id="Warstwa_1" data-name="Warstwa 1" xmlns="http://www.w3.org/2000/svg" viewBox="0 0 21.66 22.3"><defs><style>.cls-1{fill:#b7b8c4;}</style></defs><title>usermenu_profil_1</title><path class="cls-1" d="M19.35,11.29a.46.46,0,0,0,0-.28.72.72,0,0,0,0-.14.75.75,0,0,0-.08-.13.71.71,0,0,0-.06-.1l0,0,0,0-4.7-4.35a.75.75,0,1,0-1,1.1l3.3,3.05H10.47a.75.75,0,0,0,0,1.5h6.24L13.41,15a.75.75,0,0,0,1,1.1l4.7-4.35,0,0,0,0a.71.71,0,0,0,.06-.1.75.75,0,0,0,.08-.13A.72.72,0,0,0,19.35,11.29Z"/><path class="cls-1" d="M10.47,17.83a6.68,6.68,0,1,1,0-13.36.75.75,0,1,0,0-1.5,8.18,8.18,0,1,0,0,16.36.75.75,0,0,0,0-1.5Z"/></svg>