<svg id="Warstwa_1" data-name="Warstwa 1" xmlns="http://www.w3.org/2000/svg" viewBox="0 0 21.66 22.3"><defs><style>.cls-1{fill:#a9aab9;}</style></defs><title>callendar_search</title><path class="cls-1" d="M17.92,3.09h-1.2V1.47a.7.7,0,0,0-1.4,0V3.09h-9V1.47a.7.7,0,1,0-1.4,0V3.09H3.74A2.84,2.84,0,0,0,.91,5.92V18.7a2.84,2.84,0,0,0,2.83,2.83H17.92a2.84,2.84,0,0,0,2.83-2.83V5.92A2.84,2.84,0,0,0,17.92,3.09ZM3.74,4.49H17.92a1.44,1.44,0,0,1,1.43,1.43V7h-17V5.92A1.44,1.44,0,0,1,3.74,4.49ZM17.92,20.13H3.74A1.44,1.44,0,0,1,2.31,18.7V8.38h17V18.7A1.44,1.44,0,0,1,17.92,20.13Z"/><path class="cls-1" d="M16.5,11.56H5.16a.7.7,0,0,0,0,1.4H16.5a.7.7,0,0,0,0-1.4Z"/><path class="cls-1" d="M12.06,15.28H5.16a.7.7,0,0,0,0,1.4h6.9a.7.7,0,0,0,0-1.4Z"/></svg>