<svg id="Warstwa_1" data-name="Warstwa 1" xmlns="http://www.w3.org/2000/svg" viewBox="0 0 26.79 28.07"><defs><style>.cls-1{fill:#f4ae2e;}</style></defs><title>dystans_1</title><path class="cls-1" d="M9.33,8.85a3.85,3.85,0,0,0-3.71,4c0,2.62,3.19,5.34,3.33,5.46a.6.6,0,0,0,.77,0C9.86,18.15,13,15.42,13,12.8A3.85,3.85,0,0,0,9.33,8.85Zm0,8.15c-.95-.9-2.51-2.71-2.51-4.19A2.65,2.65,0,0,1,9.33,10a2.65,2.65,0,0,1,2.51,2.76C11.85,14.28,10.28,16.09,9.33,17Z"/><path class="cls-1" d="M9.33,11.07a1.42,1.42,0,1,0,1.42,1.42A1.43,1.43,0,0,0,9.33,11.07ZM9.11,12.5a.22.22,0,0,1,.45,0C9.56,12.74,9.11,12.74,9.11,12.5Z"/><path class="cls-1" d="M19.21,9.06a1.84,1.84,0,1,0,1.84,1.84A1.84,1.84,0,0,0,19.21,9.06Zm0,2.48a.64.64,0,1,1,.64-.64A.64.64,0,0,1,19.21,11.54Z"/><path class="cls-1" d="M24.1,6.87a.6.6,0,0,0-.38-.48l-5.22-2a.59.59,0,0,0-.45,0L13.4,6.3,8.75,4.36a.6.6,0,0,0-.45,0l-5.22,2a.6.6,0,0,0-.38.48l-2,16.21a.6.6,0,0,0,.79.64l6.08-2.08,5.67,2.07a.6.6,0,0,0,.41,0l5.67-2.08,6.08,2.08a.6.6,0,0,0,.79-.64ZM19.46,20.44a.59.59,0,0,0-.4,0L13.4,22.52,7.74,20.45a.6.6,0,0,0-.4,0L2,22.29,3.84,7.38,8.51,5.56l4.66,1.94a.6.6,0,0,0,.46,0l4.66-2L23,7.37l1.88,14.9Z"/><path class="cls-1" d="M18.9,13.84a.6.6,0,0,0-.73.43,5,5,0,0,1-6.08,3.56.6.6,0,1,0-.3,1.16,6.18,6.18,0,0,0,7.54-4.42A.6.6,0,0,0,18.9,13.84Z"/></svg>