<svg id="Warstwa_1" data-name="Warstwa 1" xmlns="http://www.w3.org/2000/svg" viewBox="0 0 32.66 28.07"><defs><style>.cls-1{fill:#f4ae2e;}</style></defs><title>hotel_2</title><path class="cls-1" d="M24.79,17.8h-.22V15.49a3,3,0,0,0-1.77-2.75V9.64a4.28,4.28,0,0,0-4.22-4.33H8.06A4.28,4.28,0,0,0,3.84,9.64v3.1a3,3,0,0,0-1.77,2.75V17.8H1.84a.6.6,0,0,0-.6.6v3.34a.6.6,0,0,0,.6.6H4.19v1.5a.6.6,0,1,0,1.2,0v-1.5H21.24v1.5a.6.6,0,1,0,1.2,0v-1.5h2.35a.6.6,0,0,0,.6-.6V18.4A.6.6,0,0,0,24.79,17.8ZM8.06,6.51H18.57a3.08,3.08,0,0,1,3,3.13v2.85H19.8v-1a2.23,2.23,0,0,0-2.2-2.25H16.1a2.23,2.23,0,0,0-2.2,2.25v1H12.73v-1a2.23,2.23,0,0,0-2.2-2.25H9a2.23,2.23,0,0,0-2.2,2.25v1H5V9.64A3.08,3.08,0,0,1,8.06,6.51Zm10.53,6H15.1v-1a1,1,0,0,1,1-1h1.49a1,1,0,0,1,1,1Zm-7.06,0H8v-1a1,1,0,0,1,1-1h1.49a1,1,0,0,1,1,1Zm-8.26,3A1.76,1.76,0,0,1,5,13.69H21.64a1.76,1.76,0,0,1,1.73,1.8V17.8H3.27Zm20.92,5.65H2.44V19H24.19Z"/><path class="cls-1" d="M30.4,4a.6.6,0,0,0-.59-.51H26.89A.6.6,0,0,0,26.3,4l-1,6.78a.6.6,0,0,0,.59.69h1.87v12h-1a.6.6,0,0,0,0,1.2h3.38a.6.6,0,0,0,0-1.2H28.95v-12h1.87a.6.6,0,0,0,.59-.69Zm-3.82,6.27.83-5.58h1.88l.83,5.58Z"/></svg>