<svg id="Warstwa_1" data-name="Warstwa 1" xmlns="http://www.w3.org/2000/svg" viewBox="0 0 62.99 61.1"><defs><style>.cls-1{fill:#f4ae2e;}</style></defs><title>kluczowa_cecha_3</title><path class="cls-1" d="M41.68,27.82a3.62,3.62,0,0,0,.7-.31,3.64,3.64,0,0,0,.5-6V20.7c0-.42,0-.84,0-1.27a5.55,5.55,0,0,0-.69-8.67,3.2,3.2,0,0,0-2.54-5.15h-5A17.87,17.87,0,0,0,7.09,20.7v.72a3.65,3.65,0,0,0,.4,6.09,3.62,3.62,0,0,0,.7.31c0,.33.11.65.17,1a8,8,0,1,0,10,12.26,17,17,0,0,0,2.21.76,4.31,4.31,0,0,0,.2.91A14.87,14.87,0,0,0,11,52.15a1,1,0,1,0,1.89.64,12.84,12.84,0,0,1,9-8.29,4.33,4.33,0,0,0,6.12,0,12.84,12.84,0,0,1,6.62,4.13,1,1,0,1,0,1.53-1.29,14.88,14.88,0,0,0-7.05-4.6,4.33,4.33,0,0,0,.2-.92A16.81,16.81,0,0,0,41.68,27.82ZM25,4.81a15.77,15.77,0,0,1,8.74,2.64,1,1,0,0,0,.55.17h5.33a1.2,1.2,0,0,1,.3,2.37,1,1,0,0,0,0,1.94,3.56,3.56,0,0,1,1.27,6.29,1,1,0,0,0-.39.89q0,.33.05.66l-.06-.16a1,1,0,0,0-.94-.65H31.34a10.71,10.71,0,0,1-10.25-8.76,1,1,0,0,0-1.29-.77A17,17,0,0,0,9.12,19.76,15.92,15.92,0,0,1,25,4.81ZM12.52,41.61A6,6,0,0,1,8.91,30.83a16.76,16.76,0,0,0,7.57,9.28A6,6,0,0,1,12.52,41.61Zm12.41,2.15a2.38,2.38,0,0,1-2.38-2.38,2.42,2.42,0,0,1,0-.25A1,1,0,0,0,21.79,40,14.82,14.82,0,0,1,10.1,26.89a1,1,0,0,0-.92-.9,1.65,1.65,0,0,1-.74-3.07l.14-.06A1.82,1.82,0,0,1,9,22.71a1.43,1.43,0,0,1,.33,0h0l.14,0a1,1,0,0,0,.38-.05,1,1,0,0,0,.75-.73,15,15,0,0,1,8.82-10.2A12.73,12.73,0,0,0,31.3,20.94h7.85c.1.32.19.63.27.94a1,1,0,0,0,1,.76h.1A1.67,1.67,0,0,1,40.69,26a1,1,0,0,0-.92.9A14.82,14.82,0,0,1,28.09,40a1,1,0,0,0-.78,1.08,2.42,2.42,0,0,1,0,.25A2.38,2.38,0,0,1,24.94,43.77Z"/><path class="cls-1" d="M18.35,23.64a1.5,1.5,0,1,0,1.5,1.5A1.5,1.5,0,0,0,18.35,23.64Z"/><path class="cls-1" d="M31.52,26.64a1.5,1.5,0,1,0-1.5-1.5A1.5,1.5,0,0,0,31.52,26.64Z"/><path class="cls-1" d="M29.53,34.67a1,1,0,0,0-1.66-1.12,3.54,3.54,0,0,1-5.85,0,1,1,0,1,0-1.65,1.13,5.54,5.54,0,0,0,9.16,0Z"/><path class="cls-1" d="M44.09,46a1,1,0,0,0-1.41,1.41l3.19,3.19a1,1,0,0,0,1.41,0l4.95-4.95a1,1,0,0,0-1.41-1.41l-4.24,4.24Z"/><path class="cls-1" d="M55.81,40.06h0a31.71,31.71,0,0,1-7.63-3.24,1.41,1.41,0,0,0-1.44,0,30.83,30.83,0,0,1-7.63,3.24,1.42,1.42,0,0,0-1,1.36v4.23a13.15,13.15,0,0,0,4,9.6c1.95,1.91,4.27,3,5.4,3s3.45-1.14,5.4-3a13.15,13.15,0,0,0,4-9.6V41.42A1.42,1.42,0,0,0,55.81,40.06Zm-1,5.59a11.18,11.18,0,0,1-3.39,8.17,9.14,9.14,0,0,1-4,2.48,9.14,9.14,0,0,1-4-2.48,11.19,11.19,0,0,1-3.39-8.17V41.86a32.73,32.73,0,0,0,7.39-3.15,33.85,33.85,0,0,0,7.39,3.15Z"/></svg>