<svg id="Warstwa_1" data-name="Warstwa 1" xmlns="http://www.w3.org/2000/svg" viewBox="0 0 26.79 28.07"><defs><style>.cls-1{fill:#f4ae2e;}</style></defs><title>kosztwyjazdu_1</title><path class="cls-1" d="M7.67,12.67A1.32,1.32,0,1,0,9,14,1.32,1.32,0,0,0,7.67,12.67ZM7.55,14a.12.12,0,0,1,.12-.12.11.11,0,0,1,.11.12C7.78,14.1,7.55,14.12,7.55,14Z"/><path class="cls-1" d="M13.3,6.92a2.76,2.76,0,1,0-2.76-2.76A2.76,2.76,0,0,0,13.3,6.92Zm0-4.32a1.56,1.56,0,1,1-1.56,1.56A1.56,1.56,0,0,1,13.3,2.61Z"/><path class="cls-1" d="M23.78,12.13a.6.6,0,0,0-.4,1.13A1.42,1.42,0,0,1,22.9,16h-.77a8.23,8.23,0,0,0-8.2-7.85H11.06A5.82,5.82,0,0,0,7,6a.61.61,0,0,0-.45.16.6.6,0,0,0-.19.44v3.45a8.2,8.2,0,0,0-2.43,3.33H3.57a2.3,2.3,0,0,0-2.29,2.29v1.41a2.3,2.3,0,0,0,2.29,2.29h.36A8.27,8.27,0,0,0,6.71,23a2.84,2.84,0,0,0-.13.8,2.88,2.88,0,0,0,5.63.82h1A2.87,2.87,0,1,0,18.74,23a8.18,8.18,0,0,0,3.35-5.8h.8a2.62,2.62,0,0,0,.88-5.09ZM17.71,22.3l-.06.05-.09.09-.06.09a.6.6,0,0,0,0,.11.55.55,0,0,0,0,.11.58.58,0,0,0,0,.12.55.55,0,0,0,0,.11.53.53,0,0,0,0,.08,1.66,1.66,0,0,1,.17.73,1.68,1.68,0,0,1-3.34.17.62.62,0,0,0,0-.07.58.58,0,0,0,0-.15l0,0a.59.59,0,0,0-.51-.31h-2l-.1,0-.1,0-.12.06-.08.05-.08.09-.06.09a.57.57,0,0,0,0,.12.56.56,0,0,0,0,.08A1.68,1.68,0,1,1,8,23,.51.51,0,0,0,8,23a.61.61,0,0,0,0-.11.63.63,0,0,0,0-.12.43.43,0,0,0-.06-.22.57.57,0,0,0-.05-.1l-.09-.09-.06-.06A7.1,7.1,0,0,1,4.89,18.6a.59.59,0,0,0-.59-.4H3.57a1.1,1.1,0,0,1-1.09-1.09V15.68a1.1,1.1,0,0,1,1.09-1.09h.75a.6.6,0,0,0,.57-.41A7,7,0,0,1,7.31,10.8l0,0a.58.58,0,0,0,.11-.13l0-.06a.6.6,0,0,0,0-.14.57.57,0,0,0,0-.09s0,0,0,0v-3a4.2,4.2,0,0,1,2.68,1.77l0,0,.08.09.09.06.1,0,.12,0h3.25A7,7,0,0,1,17.71,22.3Z"/></svg>