<svg id="Warstwa_1" data-name="Warstwa 1" xmlns="http://www.w3.org/2000/svg" viewBox="0 0 67.92 24.71"><defs><style>.cls-1{fill:#c3c3cd;}</style></defs><title>logo_footer</title><path class="cls-1" d="M13.11,14.1l-2.06,0V7.09l1.21-.33L12.18,5.1H7.08L7,6.65,7.72,7A.57.57,0,0,1,8,7.29a1.78,1.78,0,0,1,.06.56v6.26l-1,.28.08,1.72h8.38q.2-2.16.23-3.53l-1.26-.07Z"/><path class="cls-1" d="M21.08,7.4A4.47,4.47,0,0,0,18.81,8a3.67,3.67,0,0,0-1.48,1.6A5.49,5.49,0,0,0,16.82,12a4.54,4.54,0,0,0,1,3.25,4.11,4.11,0,0,0,3.1,1.06,4.26,4.26,0,0,0,3.23-1.2,4.63,4.63,0,0,0,1.15-3.34Q25.31,7.4,21.08,7.4Zm1.37,5.8a7.06,7.06,0,0,1-.16,1,2.63,2.63,0,0,1-.52.19,2.52,2.52,0,0,1-.57.06A1.36,1.36,0,0,1,20,13.67a4.19,4.19,0,0,1-.43-2.11,10.58,10.58,0,0,1,.07-1.25,2.79,2.79,0,0,1,.18-.79,4.26,4.26,0,0,1,1.09-.15,1.35,1.35,0,0,1,1.23.69,3.92,3.92,0,0,1,.42,2A10.31,10.31,0,0,1,22.45,13.2Z"/><path class="cls-1" d="M30.72,7.4A4.47,4.47,0,0,0,28.45,8,3.67,3.67,0,0,0,27,9.56,5.48,5.48,0,0,0,26.45,12a4.54,4.54,0,0,0,1,3.25,4.11,4.11,0,0,0,3.1,1.06,4.26,4.26,0,0,0,3.23-1.2,4.63,4.63,0,0,0,1.15-3.34Q34.95,7.4,30.72,7.4Zm1.37,5.8a7,7,0,0,1-.16,1,2.61,2.61,0,0,1-.52.19,2.53,2.53,0,0,1-.57.06,1.36,1.36,0,0,1-1.23-.74,4.2,4.2,0,0,1-.43-2.11,10.73,10.73,0,0,1,.07-1.25,2.8,2.8,0,0,1,.18-.79,4.26,4.26,0,0,1,1.09-.15,1.35,1.35,0,0,1,1.23.69,3.92,3.92,0,0,1,.42,2A10.31,10.31,0,0,1,32.09,13.2Z"/><path class="cls-1" d="M41.42,7.4a3.33,3.33,0,0,0-1.15.21,3.81,3.81,0,0,0-1.09.62,2.75,2.75,0,0,0-.2-.78q-.56,0-1.41.17l-1.63.29-.18,0L35.6,8,35.52,9.2l.74.39a.66.66,0,0,1,.28.24,1.37,1.37,0,0,1,0,.47v7.5l-1,.28.08,1.55h4.9l.07-1.14-1-.54a.56.56,0,0,1-.28-.23,1.46,1.46,0,0,1,0-.47v-.9l.77,0a4.83,4.83,0,0,0,3.5-1.17,4.48,4.48,0,0,0,1.21-3.37,5.33,5.33,0,0,0-.87-3.28A3,3,0,0,0,41.42,7.4ZM42,13.14a6.61,6.61,0,0,1-.22,1,3.06,3.06,0,0,1-1.24.21,3.14,3.14,0,0,1-1.19-.2V9.7a2.86,2.86,0,0,1,1.11-.28,1.35,1.35,0,0,1,1.2.69,3.65,3.65,0,0,1,.43,1.94A7.13,7.13,0,0,1,42,13.14Z"/><path class="cls-1" d="M52.93,8.58A3.5,3.5,0,0,0,50.09,7.4a4.26,4.26,0,0,0-2.17.54A3.6,3.6,0,0,0,46.48,9.5,5.44,5.44,0,0,0,46,11.94a4.63,4.63,0,0,0,1,3.2A3.75,3.75,0,0,0,50,16.3,6.63,6.63,0,0,0,51.9,16a5,5,0,0,0,1.57-.75l-.38-1.62a9.72,9.72,0,0,1-1.32.38,5.52,5.52,0,0,1-1.13.14,1.77,1.77,0,0,1-1.1-.32,2,2,0,0,1-.65-1l5-.91A4.89,4.89,0,0,0,52.93,8.58Zm-4.19,2.65A4,4,0,0,1,49,9.49a3,3,0,0,1,.9-.13,1.29,1.29,0,0,1,.89.29,1.25,1.25,0,0,1,.35.91Z"/><path class="cls-1" d="M60,7.45a8,8,0,0,0-1.67,1.06A8.54,8.54,0,0,0,58,7.45a19.46,19.46,0,0,0-2.92.44,3.39,3.39,0,0,0-.47.08l0,1.23.72.39a.67.67,0,0,1,.26.24,1.37,1.37,0,0,1,0,.47v4l-1,.29.08,1.55h4.9l.07-1.16-1-.52a.63.63,0,0,1-.26-.24,1.37,1.37,0,0,1,0-.46V10a13,13,0,0,1,1.42-.08l.87,0a9.64,9.64,0,0,0,.16-1.17q.06-.73.08-1.35Z"/></svg>