<svg id="Warstwa_1" data-name="Warstwa 1" xmlns="http://www.w3.org/2000/svg" viewBox="0 0 20 20"><defs><style>.cls-1{fill:#fff;}</style></defs><title>ms_insta_2</title><path class="cls-1" d="M13.81,1.5H6.19A4.7,4.7,0,0,0,1.5,6.19v7.62A4.7,4.7,0,0,0,6.19,18.5h7.62a4.7,4.7,0,0,0,4.69-4.69V6.19A4.7,4.7,0,0,0,13.81,1.5ZM17,13.81A3.19,3.19,0,0,1,13.81,17H6.19A3.19,3.19,0,0,1,3,13.81V6.19A3.19,3.19,0,0,1,6.19,3h7.62A3.19,3.19,0,0,1,17,6.19Zm0,0"/><path class="cls-1" d="M10,5.62A4.38,4.38,0,1,0,14.38,10,4.39,4.39,0,0,0,10,5.62Zm0,7.25A2.87,2.87,0,1,1,12.87,10,2.88,2.88,0,0,1,10,12.87Zm0,0"/><path class="cls-1" d="M14.56,4.34a1.11,1.11,0,1,0,.78.32,1.11,1.11,0,0,0-.78-.32Zm0,0"/></svg>