<svg id="Warstwa_1" data-name="Warstwa 1" xmlns="http://www.w3.org/2000/svg" viewBox="0 0 20 20"><defs><style>.cls-1{fill:#c2c2cc;}</style></defs><title>ms_twitter_1</title><path class="cls-1" d="M16.7,5.85a5.15,5.15,0,0,1-.9.3A2.79,2.79,0,0,0,16.55,5h0a.15.15,0,0,0-.21-.17h0A5.17,5.17,0,0,1,15,5.37h-.09a.36.36,0,0,1-.24-.09,2.8,2.8,0,0,0-1.85-.7,3,3,0,0,0-.89.14,2.72,2.72,0,0,0-1.83,2,3,3,0,0,0-.07,1,.1.1,0,0,1,0,.08.1.1,0,0,1-.08,0h0a7.35,7.35,0,0,1-5.05-2.7h0a.15.15,0,0,0-.24,0h0A2.81,2.81,0,0,0,5,8.56a2.51,2.51,0,0,1-.64-.25h0a.15.15,0,0,0-.22.13h0A2.81,2.81,0,0,0,5.83,11H5.77a2.52,2.52,0,0,1-.47,0h0a.15.15,0,0,0-.17.19h0a2.81,2.81,0,0,0,2.22,1.91,5.17,5.17,0,0,1-2.9.88H4.13a.21.21,0,0,0-.21.16.22.22,0,0,0,.11.25,7.69,7.69,0,0,0,3.87,1,7.8,7.8,0,0,0,3.3-.7,7.29,7.29,0,0,0,2.42-1.81,7.94,7.94,0,0,0,1.48-2.48,7.83,7.83,0,0,0,.5-2.71v0a.48.48,0,0,1,.18-.37,5.54,5.54,0,0,0,1.11-1.22h0a.15.15,0,0,0-.18-.22Z"/></svg>