<svg id="Warstwa_1" data-name="Warstwa 1" xmlns="http://www.w3.org/2000/svg" viewBox="0 0 15.51 13.93"><defs><style>.cls-1{fill:#b7b8c4;}</style></defs><title>notification_type_1</title><path class="cls-1" d="M14.06,9.82H12.48V8.24a.65.65,0,0,0-1.3,0V9.82H9.6a.65.65,0,0,0,0,1.3h1.58V12.7a.65.65,0,0,0,1.3,0V11.12h1.58a.65.65,0,0,0,0-1.3Z"/><path class="cls-1" d="M9.42,8.61a.65.65,0,0,0-.13-.91,5.63,5.63,0,0,0-1.13-.64,3.65,3.65,0,1,0-4.52,0A5.65,5.65,0,0,0,.87,9.64a.65.65,0,0,0,1.15.6A4.36,4.36,0,0,1,8.51,8.75.65.65,0,0,0,9.42,8.61ZM5.9,1.87A2.35,2.35,0,1,1,3.56,4.22,2.35,2.35,0,0,1,5.9,1.87Z"/></svg>