<svg id="Warstwa_1" data-name="Warstwa 1" xmlns="http://www.w3.org/2000/svg" viewBox="0 0 30.31 28.07"><defs><style>.cls-1{fill:#f4ae2e;}</style></defs><title>podchmura_2</title><path class="cls-1" d="M15.13,7.39A1.86,1.86,0,0,1,17,9.25a.43.43,0,1,0,.87,0,1.86,1.86,0,0,1,1.86-1.86.43.43,0,0,0,0-.87,1.86,1.86,0,0,1-1.86-1.86.43.43,0,0,0-.87,0,1.86,1.86,0,0,1-1.86,1.86.43.43,0,0,0,0,.87Z"/><path class="cls-1" d="M22.46,14a1.75,1.75,0,1,0-1.75-1.75A1.75,1.75,0,0,0,22.46,14Zm0-2.38a.63.63,0,1,1-.63.63A.63.63,0,0,1,22.46,11.62Z"/><circle class="cls-1" cx="16.38" cy="14.88" r="0.72"/><circle class="cls-1" cx="26.08" cy="5.58" r="0.72"/><path class="cls-1" d="M25.61,16.85a.6.6,0,0,0-.72,0,9.18,9.18,0,0,1-5.79,2A9.29,9.29,0,0,1,9.83,9.62a9.18,9.18,0,0,1,2-5.79.6.6,0,0,0-.67-.94A11.48,11.48,0,1,0,25.83,17.54.6.6,0,0,0,25.61,16.85ZM15,24A10.28,10.28,0,0,1,9.76,4.88,10.35,10.35,0,0,0,8.63,9.62,10.49,10.49,0,0,0,19.11,20.1,10.35,10.35,0,0,0,23.85,19,10.3,10.3,0,0,1,15,24Z"/></svg>