<svg id="Warstwa_1" data-name="Warstwa 1" xmlns="http://www.w3.org/2000/svg" viewBox="0 0 32.66 28.83"><defs><style>.cls-1{fill:#f4ae2e;}</style></defs><title>trekking_2</title><path class="cls-1" d="M12.64,12.33a2.41,2.41,0,0,0,2.79-2,2.41,2.41,0,0,0-2-2.79,2.44,2.44,0,0,0-.42,0,2.41,2.41,0,0,0-.42,4.79Zm-.74-2.58a1.17,1.17,0,0,1,1.15-1l.21,0a1.17,1.17,0,0,1,1,1.36,1.17,1.17,0,0,1-2.11.47A1.16,1.16,0,0,1,11.91,9.75Z"/><path class="cls-1" d="M25,15a.6.6,0,0,0-.69.49l-1.06,6.26a.6.6,0,0,0,.49.69h.1a.6.6,0,0,0,.59-.5l1.06-6.26A.6.6,0,0,0,25,15Z"/><path class="cls-1" d="M30.72,26.06H26.08V24.57h3a.6.6,0,0,0,.59-.7L26,2.08a.6.6,0,0,0-1.18,0L21.09,23.87a.6.6,0,0,0,.59.7h3.19v1.49H16.23l2-11.07a.62.62,0,0,0-.5-.72h0a.62.62,0,0,0-.72.5L15,26.06h-.38l-3-6.13a.62.62,0,0,0-.35-.32.62.62,0,0,0-.76.86l2.7,5.59H7.37l2.7-5.58a.62.62,0,0,0-.17-.77,1.12,1.12,0,0,1-.42-1.07l.68-3.84a1.12,1.12,0,0,1,1.29-.9l.29.05-.51,2.92a.62.62,0,0,0,.5.72l3.52.62A.62.62,0,1,0,15.46,17l-2.91-.51.51-2.92a.62.62,0,0,0-.5-.72l-.9-.16a2.36,2.36,0,0,0-2.73,1.91l-.68,3.84a2.36,2.36,0,0,0,.5,1.91L6,26.06H4.79a.6.6,0,1,0,0,1.2H30.72a.6.6,0,1,0,0-1.2ZM25.36,5.79l3,17.58H22.4Z"/><path class="cls-1" d="M3,26.06h-1a.6.6,0,1,0,0,1.2H3a.6.6,0,0,0,0-1.2Z"/></svg>