<svg id="Warstwa_1" data-name="Warstwa 1" xmlns="http://www.w3.org/2000/svg" viewBox="0 0 26.79 28.07"><defs><style>.cls-1{fill:#f4ae2e;}</style></defs><title>wielkoscgrupy_1</title><path class="cls-1" d="M17.15,13.5a7.17,7.17,0,0,0,.65-3c0-3.22-2-5.84-4.47-5.84S8.85,7.26,8.85,10.48a7.16,7.16,0,0,0,.66,3c-4.18,1.26-6.4,3.94-6.4,7.79a.6.6,0,0,0,.6.6H22.95a.6.6,0,0,0,.6-.6C23.55,17.49,21.28,14.73,17.15,13.5ZM13.33,5.84c1.81,0,3.27,2.08,3.27,4.64s-1.47,4.64-3.27,4.64S10.05,13,10.05,10.48,11.52,5.84,13.33,5.84Zm-9,14.87c.22-3.07,2.17-5.13,5.81-6.14a4,4,0,0,0,3.19,1.75,4,4,0,0,0,3.19-1.75c2.57.7,5.53,2.34,5.81,6.14Z"/></svg>