<svg id="Warstwa_1" data-name="Warstwa 1" xmlns="http://www.w3.org/2000/svg" viewBox="0 0 32.66 28.83"><defs><style>.cls-1{fill:#f4ae2e}</style></defs><path class="cls-1" d="M26 11.92l-1.4-2.45a.65.65 0 0 0-.76-.29l-1.5.49a.65.65 0 0 0 .4 1.24l1-.33 1.15 2a.65.65 0 0 0 1.11-.66zm-2.2-3.44a.65.65 0 1 0 1.14-.63l-2.58-4.64a.65.65 0 1 0-1.14.63zm-11 4.32a.65.65 0 0 0 .89-.24l1.15-2 1 .33a.65.65 0 0 0 .4-1.24l-1.5-.49a.65.65 0 0 0-.76.29l-1.42 2.44a.65.65 0 0 0 .24.91zm1.1-4.07a.65.65 0 0 0 .88-.25l2.43-4.35a.65.65 0 1 0-1.13-.63l-2.44 4.34a.65.65 0 0 0 .26.89zm7.9 13.46l.2-8.29a2.18 2.18 0 0 0-2.18-2.18h-1.09a2.17 2.17 0 0 0-1.71.86l-7 9.3-3.13 1.77a.65.65 0 0 0 .64 1.13l6.59-3.7a.65.65 0 0 0-.64-1.13l-.69.39L18 13.4a.88.88 0 0 1 .73-.39h1.12a.88.88 0 0 1 .88.88l-.19 7-.66-.66a.65.65 0 1 0-.92.92l4.57 4.57a.65.65 0 0 0 .92-.92z"/><path class="cls-1" d="M19.29 11.39a2.51 2.51 0 1 0-2.51-2.51 2.51 2.51 0 0 0 2.51 2.51zm0-3.71a1.21 1.21 0 1 1-1.21 1.21 1.21 1.21 0 0 1 1.21-1.21z"/></svg>