<svg id="Warstwa_1" data-name="Warstwa 1" xmlns="http://www.w3.org/2000/svg" viewBox="0 0 26.79 28.07"><defs><style>.cls-1{fill:#57585f}</style></defs><path class="cls-1" d="M24 17.61a3 3 0 0 0-2.73-1.43V12a8 8 0 0 0-7.95-8 8 8 0 0 0-8 7.95v4.27a3.07 3.07 0 0 0-.73.07 3 3 0 1 0 2.77 5.2l.28.31a7.92 7.92 0 0 0 5.63 2.36 8 8 0 0 0 6-2.73 3 3 0 0 0 1.42.79 3.08 3.08 0 0 0 .71.08 3 3 0 0 0 2.6-4.69zM13.35 5.15A6.8 6.8 0 0 1 20.13 12v1a8.47 8.47 0 0 1-1 .07 7.47 7.47 0 0 1-5.31-2.22.6.6 0 0 0-.85 0A7.46 7.46 0 0 1 7.64 13a7.57 7.57 0 0 1-1-.08v-1.01a6.78 6.78 0 0 1 6.71-6.76zM6.6 20.56a1.86 1.86 0 1 1-1.13-3.18 7.87 7.87 0 0 0 1.21 3.14zm6.74 2.36a6.8 6.8 0 0 1-6.75-6.8v-1.95a8.81 8.81 0 0 0 1 .07 8.64 8.64 0 0 0 5.75-2.18 8.65 8.65 0 0 0 5.77 2.22 8.85 8.85 0 0 0 .93-.07v1.95a6.78 6.78 0 0 1-6.7 6.76zm9.91-3.28a1.85 1.85 0 0 1-3.12.86l-.13-.06a7.92 7.92 0 0 0 1.16-3.05 1.84 1.84 0 0 1 2 2.25z"/><path class="cls-1" d="M14.54 19.4a1.57 1.57 0 0 1-1.2.57 1.57 1.57 0 0 1-1.21-.57.6.6 0 1 0-.92.76 2.76 2.76 0 0 0 2.13 1 2.77 2.77 0 0 0 2.12-1 .6.6 0 1 0-.92-.77zM9.9 16.3a.6.6 0 0 0-.83.55.64.64 0 0 0 .18.43.59.59 0 0 0 .42.17.58.58 0 0 0 .6-.6.59.59 0 0 0-.17-.42.54.54 0 0 0-.2-.13zm7.32.02a.61.61 0 0 0-.46 0 .64.64 0 0 0-.19.13.62.62 0 0 0-.18.43.63.63 0 0 0 0 .23.59.59 0 0 0 .13.19.6.6 0 0 0 .42.18.64.64 0 0 0 .43-.18.77.77 0 0 0 .13-.19.62.62 0 0 0 0-.23.61.61 0 0 0-.17-.43.7.7 0 0 0-.11-.13z"/></svg>