<svg data-name="Warstwa 1" xmlns="http://www.w3.org/2000/svg" viewBox="0 0 32.66 28.07"><path d="M24.79 17.8h-.22v-2.31a3 3 0 0 0-1.77-2.75v-3.1a4.28 4.28 0 0 0-4.22-4.33H8.06a4.28 4.28 0 0 0-4.22 4.33v3.1a3 3 0 0 0-1.77 2.75v2.31h-.23a.6.6 0 0 0-.6.6v3.34a.6.6 0 0 0 .6.6h2.35v1.5a.6.6 0 1 0 1.2 0v-1.5h15.85v1.5a.6.6 0 1 0 1.2 0v-1.5h2.35a.6.6 0 0 0 .6-.6V18.4a.6.6 0 0 0-.6-.6zM8.06 6.51h10.51a3.08 3.08 0 0 1 3 3.13v2.85H19.8v-1a2.23 2.23 0 0 0-2.2-2.25h-1.5a2.23 2.23 0 0 0-2.2 2.25v1h-1.17v-1a2.23 2.23 0 0 0-2.2-2.25H9a2.23 2.23 0 0 0-2.2 2.25v1H5V9.64a3.08 3.08 0 0 1 3.06-3.13zm10.53 6H15.1v-1a1 1 0 0 1 1-1h1.49a1 1 0 0 1 1 1zm-7.06 0H8v-1a1 1 0 0 1 1-1h1.49a1 1 0 0 1 1 1zm-8.26 3A1.76 1.76 0 0 1 5 13.69h16.64a1.76 1.76 0 0 1 1.73 1.8v2.31H3.27zm20.92 5.65H2.44V19h21.75zM30.4 4a.6.6 0 0 0-.59-.51h-2.92a.6.6 0 0 0-.59.51l-1 6.78a.6.6 0 0 0 .59.69h1.87v12h-1a.6.6 0 0 0 0 1.2h3.38a.6.6 0 0 0 0-1.2h-1.19v-12h1.87a.6.6 0 0 0 .59-.69zm-3.82 6.27l.83-5.58h1.88l.83 5.58z" fill="#57585f"/></svg>