<svg id="Warstwa_1" data-name="Warstwa 1" xmlns="http://www.w3.org/2000/svg" viewBox="0 0 56.46 61.1"><defs><style>.cls-1{fill:#f4ae2e}</style></defs><path class="cls-1" d="M46.17 23.94v-.79a17.86 17.86 0 0 0-2.07-8.33 6.18 6.18 0 0 0-5.16-9.61h-11.1a18 18 0 0 0-17.55 17.94v.78a3.64 3.64 0 0 0 .5 6 3.63 3.63 0 0 0 .7.31 16.81 16.81 0 0 0 12.38 14 4.33 4.33 0 0 0 .2.91 14.87 14.87 0 0 0-9.78 9.42 1 1 0 0 0 .63 1.27 1 1 0 0 0 .32.05 1 1 0 0 0 .95-.68 12.84 12.84 0 0 1 9-8.29 4.33 4.33 0 0 0 6.12 0 12.84 12.84 0 0 1 9 8.29 1 1 0 0 0 .95.68 1 1 0 0 0 .32-.05 1 1 0 0 0 .63-1.27 14.87 14.87 0 0 0-9.78-9.42 4.33 4.33 0 0 0 .2-.91A16.8 16.8 0 0 0 45 30.25a3.61 3.61 0 0 0 .7-.31 3.64 3.64 0 0 0 .5-6zM27.9 7.22h11a4.18 4.18 0 0 1 3.2 6.89 1 1 0 0 0-.1 1.14 15.87 15.87 0 0 1 2.1 7 16.91 16.91 0 0 0-4.07-6.36 1 1 0 0 0-.7-.29h-8.99a4.19 4.19 0 0 1-4.13-3.47 1 1 0 0 0-1.21-.82 16.93 16.93 0 0 0-12.73 10.9A16 16 0 0 1 27.9 7.22zm16.78 21a1.65 1.65 0 0 1-.7.21 1 1 0 0 0-.92.9 14.82 14.82 0 0 1-11.68 13.15 1 1 0 0 0-.78 1.08 2.43 2.43 0 0 1 0 .25 2.38 2.38 0 1 1-4.76 0 2.5 2.5 0 0 1 0-.26 1 1 0 0 0-.78-1.08 14.82 14.82 0 0 1-11.67-13.15 1 1 0 0 0-.92-.9 1.68 1.68 0 0 1-1.54-1.66 1.65 1.65 0 0 1 .85-1.44 1.62 1.62 0 0 1 .79-.23h.15a1 1 0 0 0 .36 0l.13-.06a1 1 0 0 0 .21-.13 1 1 0 0 0 .34-.52 14.92 14.92 0 0 1 10.75-10.9 6.18 6.18 0 0 0 5.83 4.11H39a14.86 14.86 0 0 1 3.72 6.75 1 1 0 0 0 1 .76h.12a1.65 1.65 0 0 1 .83.23 1.65 1.65 0 0 1 0 2.89z"/><path class="cls-1" d="M21.65 26.07a1.5 1.5 0 1 0 1.5 1.5 1.5 1.5 0 0 0-1.5-1.5zm13.16 0a1.5 1.5 0 1 0 1.5 1.5 1.5 1.5 0 0 0-1.5-1.5zM31.16 36a3.54 3.54 0 0 1-5.85 0 1 1 0 1 0-1.65 1.13 5.54 5.54 0 0 0 9.16 0A1 1 0 1 0 31.16 36z"/></svg>