<svg id="Warstwa_1" data-name="Warstwa 1" xmlns="http://www.w3.org/2000/svg" viewBox="0 0 92.46 61.1"><defs><style>.cls-1{fill:#f4ae2e}</style></defs><path class="cls-1" d="M61.31 19.41h2.1a1 1 0 0 0 0-2h-2.1a1.89 1.89 0 1 1 0-3.78h1.23a1 1 0 0 0 .25-.05h.13a1 1 0 0 0 .6-.81 2.72 2.72 0 0 1 5.41 0 1 1 0 0 0 .09.29 2 2 0 0 0 .25.34l.09.06a1 1 0 0 0 .58.21h1.23a1.89 1.89 0 0 1 0 3.78h-2.25a1 1 0 0 0-.82.43l-2.29 3.3a1 1 0 1 0 1.64 1.14l2-2.87h1.78a3.89 3.89 0 0 0 0-7.78h-.44a4.72 4.72 0 0 0-9 0h-.44a3.89 3.89 0 1 0 0 7.78z"/><path class="cls-1" d="M86 49.39h-4.48v-3.74c2.72-1 4.19-6.11 4.19-11 0-4.4-1.49-14.93-5.19-14.93s-5.19 10.58-5.19 14.97c0 4.84 1.46 9.94 4.19 11v3.75h-7.3l2-2.52a1 1 0 0 0-1.57-1.24l-2.31 2.93-25.65-35.72 2.17-3a1 1 0 1 0-1.62-1.17l-1.78 2.47-1.78-2.48a1 1 0 0 0-1.62 1.17l2.17 3-25.64 35.68-2.31-2.93a1 1 0 0 0-1.57 1.24l2 2.52h-4.55a1 1 0 0 0 0 2H86a1 1 0 1 0 0-2zm-8.67-14.7c0-6.17 2-12.76 3.18-12.93 1.14.18 3.19 6.76 3.19 12.93 0 5.58-1.89 9.15-3.19 9.15s-3.18-3.56-3.18-9.15zm-8.87 14.7h-5.57L44.27 23.5a1 1 0 0 0-1.53 0L24 49.39h-5.55l25-34.79zm-24-18.22l3.72 11.94-3.72 4.2zm-2 18.22h-16l16-22.21zM50.05 44a1 1 0 0 0 .21-1L46 29.28l14.42 20.11H45.29zM5.26 49.39H2.44a1 1 0 0 0 0 2h2.82a1 1 0 0 0 0-2z"/></svg>