<svg data-name="Warstwa 1" xmlns="http://www.w3.org/2000/svg" viewBox="0 0 67.92 24.71"><path d="M13.11 14.1h-2.06V7.09l1.21-.33-.08-1.66h-5.1L7 6.65l.72.35a.57.57 0 0 1 .28.29 1.78 1.78 0 0 1 .06.56v6.26l-1 .28.08 1.72h8.38q.2-2.16.23-3.53l-1.26-.07zm7.97-6.7a4.47 4.47 0 0 0-2.27.6 3.67 3.67 0 0 0-1.48 1.6 5.49 5.49 0 0 0-.51 2.4 4.54 4.54 0 0 0 1 3.25 4.11 4.11 0 0 0 3.1 1.06 4.26 4.26 0 0 0 3.23-1.2 4.63 4.63 0 0 0 1.15-3.34q.01-4.37-4.22-4.37zm1.37 5.8a7.06 7.06 0 0 1-.16 1 2.63 2.63 0 0 1-.52.19 2.52 2.52 0 0 1-.57.06 1.36 1.36 0 0 1-1.2-.78 4.19 4.19 0 0 1-.43-2.11 10.58 10.58 0 0 1 .07-1.25 2.79 2.79 0 0 1 .18-.79 4.26 4.26 0 0 1 1.09-.15 1.35 1.35 0 0 1 1.23.69 3.92 3.92 0 0 1 .42 2 10.31 10.31 0 0 1-.11 1.14zm8.27-5.8a4.47 4.47 0 0 0-2.27.6A3.67 3.67 0 0 0 27 9.56a5.48 5.48 0 0 0-.55 2.44 4.54 4.54 0 0 0 1 3.25 4.11 4.11 0 0 0 3.1 1.06 4.26 4.26 0 0 0 3.23-1.2 4.63 4.63 0 0 0 1.15-3.34q.02-4.37-4.21-4.37zm1.37 5.8a7 7 0 0 1-.16 1 2.61 2.61 0 0 1-.52.19 2.53 2.53 0 0 1-.57.06 1.36 1.36 0 0 1-1.23-.74 4.2 4.2 0 0 1-.43-2.11 10.73 10.73 0 0 1 .07-1.25 2.8 2.8 0 0 1 .18-.79 4.26 4.26 0 0 1 1.09-.15 1.35 1.35 0 0 1 1.23.69 3.92 3.92 0 0 1 .42 2 10.31 10.31 0 0 1-.08 1.1zm9.33-5.8a3.33 3.33 0 0 0-1.15.21 3.81 3.81 0 0 0-1.09.62 2.75 2.75 0 0 0-.2-.78q-.56 0-1.41.17l-1.63.29h-.18L35.6 8l-.08 1.2.74.39a.66.66 0 0 1 .28.24 1.37 1.37 0 0 1 0 .47v7.5l-1 .28.08 1.55h4.9l.07-1.14-1-.54a.56.56 0 0 1-.28-.23 1.46 1.46 0 0 1 0-.47v-.9h.77a4.83 4.83 0 0 0 3.5-1.17 4.48 4.48 0 0 0 1.21-3.37 5.33 5.33 0 0 0-.87-3.28 3 3 0 0 0-2.5-1.13zm.58 5.74a6.61 6.61 0 0 1-.22 1 3.06 3.06 0 0 1-1.24.21 3.14 3.14 0 0 1-1.19-.2V9.7a2.86 2.86 0 0 1 1.11-.28 1.35 1.35 0 0 1 1.2.69 3.65 3.65 0 0 1 .43 1.94 7.13 7.13 0 0 1-.09 1.09zm10.93-4.56a3.5 3.5 0 0 0-2.84-1.18 4.26 4.26 0 0 0-2.17.54 3.6 3.6 0 0 0-1.44 1.56 5.44 5.44 0 0 0-.48 2.44 4.63 4.63 0 0 0 1 3.2 3.75 3.75 0 0 0 3 1.16 6.63 6.63 0 0 0 1.9-.3 5 5 0 0 0 1.57-.75l-.38-1.62a9.72 9.72 0 0 1-1.32.38 5.52 5.52 0 0 1-1.13.14 1.77 1.77 0 0 1-1.1-.32 2 2 0 0 1-.65-1l5-.91a4.89 4.89 0 0 0-.96-3.34zm-4.19 2.65A4 4 0 0 1 49 9.49a3 3 0 0 1 .9-.13 1.29 1.29 0 0 1 .89.29 1.25 1.25 0 0 1 .35.91zM60 7.45a8 8 0 0 0-1.67 1.06A8.54 8.54 0 0 0 58 7.45a19.46 19.46 0 0 0-2.92.44 3.39 3.39 0 0 0-.47.08V9.2l.72.39a.67.67 0 0 1 .26.24 1.37 1.37 0 0 1 0 .47v4l-1 .29.08 1.55h4.9l.07-1.16-1-.52a.63.63 0 0 1-.26-.24 1.37 1.37 0 0 1 0-.46V10a13 13 0 0 1 1.42-.08h.87a9.64 9.64 0 0 0 .16-1.17q.06-.73.08-1.35z" fill="#c3c3cd"/></svg>