<svg id="Warstwa_1" data-name="Warstwa 1" xmlns="http://www.w3.org/2000/svg" viewBox="0 0 35.4 28.07"><defs><style>.cls-1{fill:#f4ae2e}</style></defs><path class="cls-1" d="M26.83 8.9a2.49 2.49 0 1 0-2.49-2.49 2.49 2.49 0 0 0 2.49 2.49zm0-3.77a1.29 1.29 0 1 1-1.29 1.29 1.29 1.29 0 0 1 1.29-1.29zm1.77 6.56a.68.68 0 0 0-.13.51.69.69 0 0 0 .68.59h.09a.69.69 0 0 0 .32-1.22.69.69 0 0 0-1 .13z"/><circle class="cls-1" cx="21.59" cy="2.13" r=".69"/><circle class="cls-1" cx="33.39" cy="5.89" r=".69"/><path class="cls-1" d="M33 25.43h-1.71l.78-1a.6.6 0 0 0-.94-.74l-1 1.25-12-16.64 1-1.35a.6.6 0 0 0-1-.7l-.74 1-.74-1a.6.6 0 1 0-1 .7l1 1.35-12 16.64-1-1.25a.6.6 0 0 0-.94.74l.78 1H1.93a.6.6 0 1 0 0 1.2H33a.6.6 0 0 0 0-1.2zm-3.95 0h-2.37l-8.75-12.19a.58.58 0 0 0-.92 0L8.2 25.43H5.88L17.44 9.34zM18 17.78l1.49 4.77L18 24.23zm-1.2 7.64H9.67l7.17-10zm3.81-2.33a.6.6 0 0 0 .12-.58L19 16.76l6.23 8.66h-6.64z"/></svg>