<svg id="Warstwa_1" data-name="Warstwa 1" xmlns="http://www.w3.org/2000/svg" viewBox="0 0 25.8 27.17"><defs><style>.cls-1{fill:#57585f}</style></defs><path class="cls-1" d="M12.9 14.68a20 20 0 0 0 3.1-.22c1.51-.25 2.27-.72 2.27-1.39L18 8.29a1.57 1.57 0 0 0-1.57-1.47h-7a1.57 1.57 0 0 0-1.59 1.47l-.3 4.83c0 1.41 3.75 1.56 5.36 1.56zm-4.1-1.76l.28-4.56a.32.32 0 0 1 .32-.3h7a.32.32 0 0 1 .32.3l.28 4.56a11.82 11.82 0 0 1-4.09.52 11.81 11.81 0 0 1-4.11-.52zm-.16 3.35a1.57 1.57 0 1 0 1.57 1.57 1.57 1.57 0 0 0-1.57-1.57zm0 1.25a.32.32 0 1 1-.32.32.32.32 0 0 1 .32-.32zm8.51-1.25a1.57 1.57 0 1 0 1.57 1.57 1.57 1.57 0 0 0-1.57-1.57zm.32 1.57a.32.32 0 1 1-.32-.32.32.32 0 0 1 .33.32zm-3.15-.62h-2.84a.62.62 0 1 0 0 1.25h2.84a.62.62 0 1 0 0-1.25z"/><path class="cls-1" d="M21.41 24.06L19 21.25c.86-.36 1.61-.86 1.61-1.56l-.82-12.42a2.52 2.52 0 0 0-2.51-2.35H14l.85-1.42a4.07 4.07 0 0 1 1.84.61.62.62 0 0 0 .92-.84c-.11-.12-1.15-1.15-4.72-1.15s-4.61 1-4.72 1.15a.62.62 0 0 0 0 .86.63.63 0 0 0 .87 0 4 4 0 0 1 1.85-.62l.85 1.42H8.52A2.52 2.52 0 0 0 6 7.27l-.82 12.47c0 .62.64 1.13 1.61 1.52l-2.4 2.8a.62.62 0 1 0 .95.81l.66-.73h13.84l.62.73a.62.62 0 0 0 .47.22.63.63 0 0 0 .41-.15.62.62 0 0 0 .07-.88zM7.69 22.25H18.2l.57.67H7l.57-.67zM12.9 21c-3.73 0-6.17-1-6.47-1.28l.82-12.37a1.27 1.27 0 0 1 1.27-1.18h8.76a1.27 1.27 0 0 1 1.27 1.18l.83 12.29C19.12 20 16.8 21 12.9 21zm0-16.67l-.59-1h1.18z"/></svg>