<svg id="Warstwa_1" data-name="Warstwa 1" xmlns="http://www.w3.org/2000/svg" viewBox="0 0 30.31 28.07"><defs><style>.cls-1{fill:#57585f}</style></defs><path class="cls-1" d="M15.13 7.39A1.86 1.86 0 0 1 17 9.25a.43.43 0 1 0 .87 0 1.86 1.86 0 0 1 1.86-1.86.43.43 0 0 0 0-.87 1.86 1.86 0 0 1-1.86-1.86.43.43 0 0 0-.87 0 1.86 1.86 0 0 1-1.86 1.86.43.43 0 0 0 0 .87zM22.46 14a1.75 1.75 0 1 0-1.75-1.75A1.75 1.75 0 0 0 22.46 14zm0-2.38a.63.63 0 1 1-.63.63.63.63 0 0 1 .63-.63z"/><circle class="cls-1" cx="16.38" cy="14.88" r=".72"/><circle class="cls-1" cx="26.08" cy="5.58" r=".72"/><path class="cls-1" d="M25.61 16.85a.6.6 0 0 0-.72 0 9.18 9.18 0 0 1-5.79 2 9.29 9.29 0 0 1-9.27-9.23 9.18 9.18 0 0 1 2-5.79.6.6 0 0 0-.67-.94 11.48 11.48 0 1 0 14.67 14.65.6.6 0 0 0-.22-.69zM15 24A10.28 10.28 0 0 1 9.76 4.88a10.35 10.35 0 0 0-1.13 4.74A10.49 10.49 0 0 0 19.11 20.1a10.35 10.35 0 0 0 4.74-1.1A10.3 10.3 0 0 1 15 24z"/></svg>