<svg data-name="Warstwa 1" xmlns="http://www.w3.org/2000/svg" viewBox="0 0 35.42 28.07"><path d="M9.86 6.88a2 2 0 1 0-2-2 2 2 0 0 0 2 2zm0-2.7a.71.71 0 1 1-.71.71.71.71 0 0 1 .71-.7zM34 16.08a1.55 1.55 0 0 0-.67-1l-1.14-.74a.58.58 0 0 0 0-.21v-3.06a.6.6 0 0 0-.6-.6h-2.2a.6.6 0 0 0-.6.6v1.08l-2.41-1.57a1.45 1.45 0 0 0-.86-.24 1.57 1.57 0 0 0-.9.24l-2.43 1.59L18.71 4a1.9 1.9 0 0 0-1.65-1.3A1.9 1.9 0 0 0 15.41 4l-5.27 12.35-1.73-4.06a1.32 1.32 0 0 0-1.17-.91 1.32 1.32 0 0 0-1.17.91L1.46 23a.61.61 0 0 0 0 .13.69.69 0 0 0 0 .11.59.59 0 0 0 0 .18.6.6 0 0 0 .07.1.56.56 0 0 0 .06.09.6.6 0 0 0 .17.12.59.59 0 0 0 .22 0h3.56a.6.6 0 1 0 0-1.2H2.92l2.88-6.74h2.86l.83 1.93L7.28 23a.61.61 0 0 0 0 .13.69.69 0 0 0 0 .11.41.41 0 0 0 .1.29.56.56 0 0 0 .06.09.6.6 0 0 0 .17.12.59.59 0 0 0 .22 0H17a.6.6 0 0 0 0-1.2H8.74l5.49-12.7h5.66l1.28 3-3.46 2.26a1.56 1.56 0 0 0 .94 2.9v6.81a.6.6 0 0 0 .6.6h12.51a.6.6 0 0 0 .6-.6V18h.08a1.57 1.57 0 0 0 .33 0A1.56 1.56 0 0 0 34 16.08zM6.32 14.74l.85-2a.71.71 0 0 1 .07-.13.71.71 0 0 1 .07.13l.85 2zm8.42-6.1l1.78-4.14c.35-.82.74-.82 1.09 0l1.77 4.15zm15.25 3h1v1.96l-1-.66zm-3.58 12.5h-1.82v-4.36h1.81zm1.2 0v-5a.6.6 0 0 0-.6-.6H24a.6.6 0 0 0-.6.6v5h-3.55v-.54h2.22a.6.6 0 1 0 0-1.2h-2.22v-.51h2.22a.6.6 0 1 0 0-1.2h-2.22v-.51h2.22a.6.6 0 1 0 0-1.2h-2.22v-1.55l5.66-3.69 5.65 3.69V19H29a.6.6 0 1 0 0 1.2h2.2v.51H29a.6.6 0 0 0 0 1.2h2.2v.51H29a.6.6 0 1 0 0 1.2h2.2v.57zm5.14-7.57a.37.37 0 0 1-.5.1l-6.41-4.19a.6.6 0 0 0-.66 0l-6.41 4.19a.36.36 0 0 1-.27.05.36.36 0 0 1-.23-.16.37.37 0 0 1 .11-.5l6.91-4.52a.49.49 0 0 1 .24 0 .36.36 0 0 1 .21 0l6.91 4.51a.37.37 0 0 1 .1.5z" fill="#f4ae2e"/></svg>