<svg data-name="Warstwa 1" xmlns="http://www.w3.org/2000/svg" viewBox="0 0 26.79 28.07"><path d="M22.57 20.68a.3.3 0 0 0-.2-.11.33.33 0 0 0-.22.07c-1.4 1.15-5.05 1.39-6.61 1.26a24.42 24.42 0 0 1-9.89-3.24l-.65-.4a7.53 7.53 0 0 0 .21-.75l.07-.28c.07-.27.15-.71.24-1.25A15.49 15.49 0 0 1 5.9 14l2-5c0-.11.08-.23.13-.36A1.81 1.81 0 0 1 8.31 8a1.43 1.43 0 0 1 .33-.19l.11-.06 3.86-3a.23.23 0 0 1 .28 0l1.94 1.55a.23.23 0 0 1 .09.17.23.23 0 0 1-.08.18l-1.23 1.09a.23.23 0 0 1-.31 0 .23.23 0 0 1-.07-.18.23.23 0 0 1 .1-.17l.11-.07a.3.3 0 0 0 .13-.19.3.3 0 0 0 0-.23l-.36-.54a.3.3 0 0 0-.42-.08l-.11.07a1.48 1.48 0 0 0 1.49 2.55l-.58.5-1.87-.23v-.16a.3.3 0 0 0-.2-.37l-.63-.18a.3.3 0 0 0-.37.2 7.94 7.94 0 0 0-.31 2.41c0 .44.06.86.1 1.28a11.87 11.87 0 0 1 .09 1.34 4.29 4.29 0 0 1-1.31 3.18.3.3 0 0 0 0 .42l.43.49a.3.3 0 0 0 .42 0 5 5 0 0 0 1.38-2.07h.1a3.4 3.4 0 0 1 .83.18 4.17 4.17 0 0 0-.24.57.3.3 0 0 0 0 .23.3.3 0 0 0 .17.15l.62.21a.3.3 0 0 0 .38-.19 2.89 2.89 0 0 1 .25-.54.3.3 0 0 0 .08-.08l.29-.43a4 4 0 0 1 2.39-1.23 3.61 3.61 0 0 1 3.54 1.28.3.3 0 0 0 .42.07l.53-.38a.3.3 0 0 0 .07-.42 4.15 4.15 0 0 0-1-1 3.35 3.35 0 0 1 2.85-.37.3.3 0 0 0 .38-.18l.21-.62a.3.3 0 0 0-.18-.38 4.64 4.64 0 0 0-4.49.92 5.46 5.46 0 0 0-2.52-.13 5.26 5.26 0 0 0-3 1.49 4.77 4.77 0 0 0-1.38-.37 6.3 6.3 0 0 0 .06-.82 13.12 13.12 0 0 0-.1-1.49c0-.38-.08-.78-.09-1.16v-.63l2.19.27h.08a.62.62 0 0 0 .41-.15l2.28-2a.63.63 0 0 0 .11-.82L16.07 7a1.43 1.43 0 0 0 .11-.57 1.48 1.48 0 0 0-.56-1.12l-1.94-1.53a1.48 1.48 0 0 0-1.83 0L8.18 6.59l-.08.06a2.52 2.52 0 0 0-.61.35 2.69 2.69 0 0 0-.7 1.25c0 .1-.07.2-.1.3l-2 5a14.66 14.66 0 0 0-.48 2.19c-.08.47-.16.9-.22 1.14l-.07.3a3.67 3.67 0 0 1-.33 1 .63.63 0 0 0 .22.85l1.19.7a25.72 25.72 0 0 0 10.42 3.42h1c.77 0 4.7-.08 6.52-1.58a.3.3 0 0 0 0-.42z" fill="#f4ae2e"/></svg>