<svg id="Warstwa_1" data-name="Warstwa 1" xmlns="http://www.w3.org/2000/svg" viewBox="0 0 32.66 28.83"><defs><style>.cls-1{fill:#57585f}</style></defs><path class="cls-1" d="M15.41 10.73A2.39 2.39 0 1 0 13 8.35a2.39 2.39 0 0 0 2.41 2.38zm0-3.47a1.09 1.09 0 1 1-1.09 1.09 1.09 1.09 0 0 1 1.09-1.09z"/><path class="cls-1" d="M20.05 17.94a.65.65 0 0 0-.89-.43l-1 .44v-.81c5-2.71 7.45-8 7.45-16a.65.65 0 1 0-1.3 0c0 7.21-2 12-6.15 14.55v-1.9l4-6.35a.65.65 0 1 0-1.1-.7L17.68 12a2.17 2.17 0 0 0-1.68-.8h-1.15a2.17 2.17 0 0 0-2 1.46l-2.21.72L8.24 10a.65.65 0 1 0-1.06.75l2.62 3.77a.65.65 0 0 0 .73.25l2.15-.7v6.37a.62.62 0 0 0 0 .13l-3.17 6.9a.65.65 0 1 0 1.18.54l3.13-6.81h.09L19 19l1 3.9a.65.65 0 0 0 .63.49h.16a.65.65 0 0 0 .47-.79zm-5.2-5.44H16a.88.88 0 0 1 .88.88v4.93a.62.62 0 0 0 0 .18L14 19.75v-6.37a.88.88 0 0 1 .85-.88z"/></svg>