<svg id="Warstwa_1" data-name="Warstwa 1" xmlns="http://www.w3.org/2000/svg" viewBox="0 0 26.79 28.07"><defs><style>.cls-1{fill:#f4ae2e}</style></defs><path class="cls-1" d="M9.95 16.33A5.76 5.76 0 0 1 8.13 16a.57.57 0 1 0-.36 1.09 7 7 0 1 0-2.35-1.37c0 .53-.06 1.11-.06 1.73 0 2.88.86 4.6 2.3 4.6 1.81 0 2.3-2.17 2.3-3.45a.57.57 0 1 0-1.15 0s0 2.3-1.15 2.3c-.67 0-1.15-1.45-1.15-3.45C6.5 10.78 8.85 10 8.93 10a.57.57 0 0 0-.24-1.12 2.41 2.41 0 0 0-1 .56A1.14 1.14 0 0 1 9.1 8.33a1.15 1.15 0 0 1 .28 2.11.57.57 0 0 0 .57 1 2.31 2.31 0 1 0-3.18-.93 9.84 9.84 0 0 0-1.21 3.77 5.73 5.73 0 1 1 4.39 2.06z"/><path class="cls-1" d="M23.57 20.53l-6-6a.57.57 0 0 0-.81.81l5.8 5.8v2.06h-2.03l-.24-.2v-1.49a.57.57 0 0 0-.57-.57h-.57v-.57a.57.57 0 0 0-.57-.57h-1.5l-.24-.24v-1.5a.57.57 0 0 0-.57-.57h-1.48l-.06-.06a.57.57 0 0 0-.81.81l.22.22a.57.57 0 0 0 .41.17h1.15v1.15a.58.58 0 0 0 .17.41l.57.58a.58.58 0 0 0 .41.17H18v.57a.57.57 0 0 0 .57.57h.57v1.15a.57.57 0 0 0 .17.41l.57.57a.58.58 0 0 0 .41.17h2.87a.57.57 0 0 0 .57-.57v-2.88a.58.58 0 0 0-.16-.4z"/></svg>