<svg id="Warstwa_1" data-name="Warstwa 1" xmlns="http://www.w3.org/2000/svg" viewBox="0 0 35.57 28.07"><defs><style>.cls-1{fill:#f4ae2e;}</style></defs><title>agroturystyka_2</title><path class="cls-1" d="M7.86,9.29a.54.54,0,0,0,.26-.73.56.56,0,0,1,.49-.8A.55.55,0,0,0,9.1,7,1,1,0,0,1,9,6.59a1,1,0,0,1,1-1h0a.55.55,0,0,0,.54-.47,1.69,1.69,0,0,1,2.19-1.33.55.55,0,0,0,.65-.24,2.3,2.3,0,1,1,.6,3,.55.55,0,0,0-.69,0,1.68,1.68,0,0,1-1.74.3.55.55,0,0,0-.68.23,1,1,0,0,1-1.11.5.55.55,0,0,0-.65.63.54.54,0,0,1-.47.65A.55.55,0,0,0,8.78,10h.08A1.67,1.67,0,0,0,10.23,8.7,2.13,2.13,0,0,0,11.61,8a2.76,2.76,0,0,0,2.13-.37A3.38,3.38,0,1,0,15.4,1.31a3.33,3.33,0,0,0-2.67,1.31A2.8,2.8,0,0,0,9.62,4.5a2.12,2.12,0,0,0-1.7,2.08,2.08,2.08,0,0,0,0,.24,1.67,1.67,0,0,0-1,1.5A1.64,1.64,0,0,0,7.13,9,.55.55,0,0,0,7.86,9.29ZM9.41,8.18ZM8.78,9.71Z"/><path class="cls-1" d="M33,25.56H30.66a2.47,2.47,0,0,0-3-1.94V21.68C29.06,21.2,30,19.09,30,16.39c0-2.11-.85-7.18-2.94-7.18s-2.94,5.07-2.94,7.18c0,2.69,1,4.81,2.34,5.29v.82a3.28,3.28,0,0,0-2-.71A3,3,0,0,0,22,23.06V18.74a1.7,1.7,0,0,0,.51-3.07L14.6,10.5a1.62,1.62,0,0,0-.95-.26,1.63,1.63,0,0,0-1,.26L10,12.23V11.1a.6.6,0,0,0-.6-.6H6.91a.6.6,0,0,0-.6.6v3.52s0,0,0,0l-1.55,1a1.7,1.7,0,0,0,.51,3.07v6.82H2.61a.6.6,0,1,0,0,1.2H33a.6.6,0,0,0,0-1.2Zm-7.6-9.17c0-3,1.19-6,1.74-6s1.74,3,1.74,6a5.89,5.89,0,0,1-1.14,3.89V20a.6.6,0,1,0-1.2,0v.31A5.89,5.89,0,0,1,25.36,16.39Zm-.9,6.6a2.09,2.09,0,0,1,2,1.43h0a2.12,2.12,0,0,1,.06.22h0a2.67,2.67,0,0,0,.09.2v0l.07.06.07.06.12.07.06,0,.14,0h.1a.59.59,0,0,0,.28-.1,1.3,1.3,0,0,1,2,.55h-7C22.46,24.06,23.31,23,24.46,23ZM7.51,11.7H8.84V13l-1.33.87ZM5.2,17a.5.5,0,0,1,.22-.32l7.92-5.17a.5.5,0,0,1,.29-.06h0a.53.53,0,0,1,.29.06l7.92,5.17a.5.5,0,0,1-.55.84L14,12.72a.6.6,0,0,0-.66,0L6,17.52A.5.5,0,0,1,5.2,17ZM6.47,18.6l.15-.08,7-4.58,7,4.58.15.07v7H6.47Z"/><path class="cls-1" d="M16.73,17.44H10.55a.6.6,0,0,0-.6.6v4.42a.6.6,0,0,0,.6.6h6.19a.6.6,0,0,0,.6-.6V18A.6.6,0,0,0,16.73,17.44Zm-5.59,1.2H13v3.22H11.15Zm5,3.22H14.24V18.64h1.89Z"/></svg>