<svg id="Warstwa_1" data-name="Warstwa 1" xmlns="http://www.w3.org/2000/svg" viewBox="0 0 75.99 61.1"><defs><style>.cls-1{fill:#f4ae2e;}</style></defs><title>kluczowa_cecha_4</title><path class="cls-1" d="M69.14,21.91a1,1,0,0,0-.82-.39l-1.4.05-.32,0-.29-7.22a1,1,0,0,0-2,.08l.29,7.25-1.08.06-7.21.31-2.74-2.62a4.18,4.18,0,0,0-.73-2.94,4.23,4.23,0,0,0-.42-.5l.23-1.6a5.22,5.22,0,0,0,4.63-4.5h0a5.76,5.76,0,0,0,0-2,15.42,15.42,0,0,0,1.67-1.58A1,1,0,0,0,57.44,5c-.32.35-.64.67-1,1l0,0a4.62,4.62,0,0,0-3.1-2,5.11,5.11,0,0,0-5.64,4.48,5.7,5.7,0,0,0,0,1.62s0,0,0,.06a1,1,0,0,0,0,.12,5.2,5.2,0,0,0,1.81,3.24l-.18,1.3-2.52-.5h0l.46-2.6a1.94,1.94,0,0,0-1.57-2.24l-3.92-.69a1.94,1.94,0,0,0-2.24,1.57l-.19,1.09L38.15,11a1,1,0,0,0-1.18.76L35.49,20a1,1,0,0,0,.72,1.11l1.36.33-.46,2.64a1.94,1.94,0,0,0,1.57,2.24L42.6,27h0l-.54,3.1-2.42,8.27-6.76,6.48-2,2a1,1,0,0,0,0,1.36l5.34,5.34a1,1,0,0,0,1.36,0l.6-.6A2.17,2.17,0,0,0,38.38,50l-1.09-1.38L44.16,42a2.74,2.74,0,0,0,.3-.36A2.82,2.82,0,0,0,45,40.59L46.82,34l3.7,6.54v12.8a1,1,0,0,0,1,1H59a1,1,0,0,0,.68-.28,1,1,0,0,0,.28-.68V52.5a2.17,2.17,0,0,0-1.92-2.14l-1.81-.21V39.91a2.71,2.71,0,0,0,0-.47,2.81,2.81,0,0,0-.36-1.13l-4.28-7.55.85-4.84,1.4,1.4a1,1,0,0,0,.4.24,1.11,1.11,0,0,0,.37.06l10.21-.45,1,25.58a1,1,0,0,0,1,1h0a1,1,0,0,0,1-1l-1-25.59H67l.07,0,.14-.06c.34-.13.62-.26.71-.48l1.39-3.71A1,1,0,0,0,69.14,21.91Zm-2.91,1.64h.29l.2,0H67l-.65,1.73-1.67,0-.07-1.65ZM39,13.24l-1.1,6.28-.36-.09,1.14-6.28Zm7.55,5.45a1,1,0,0,0,0,1.36l4.23,4.22-1.14,6.51a1,1,0,0,0,.11.64l4.45,7.86a1,1,0,0,1,.12.39v.08a.93.93,0,0,1,0,.17v10l-1.91-.22V40.29a1,1,0,0,0-.12-.47L47,30.5l-.17.1.15-.15a1,1,0,0,0-.7-.52l-2.21-.39L46.49,16.1l1.6.28.09,0h.08l1.48.26a1,1,0,0,0-.23,1.55l5.77,5.53A1,1,0,0,0,56,24l6.67-.29.07,1.62-7.8.34-7-7A1,1,0,0,0,46.56,18.68ZM39,24.39l2.44-13.83,3.93.7L42.94,25.08s0,0,0,0Zm4.15,15.69a.94.94,0,0,1-.19.36l-.05.07-.1.13-6.72,6.51-1.22-1.54,6.3-6a1,1,0,0,0,.26-.42l2.26-7.73,1.77.31-2.31,8.35ZM36.91,51.46l-4-4,.53-.53,3.38,4.27A.24.24,0,0,1,36.91,51.46Zm15.53.93v-.75l5.42.63a.24.24,0,0,1,.19.13Zm2.86-42.8A3.12,3.12,0,0,1,52,12.41a2.71,2.71,0,0,1-2-1.54,14.15,14.15,0,0,0,5.34-1.65C55.33,9.34,55.33,9.46,55.31,9.59ZM52.62,5.83a2.46,2.46,0,0,1,.39,0A2.64,2.64,0,0,1,54.78,7s.05.1.08.15a11.9,11.9,0,0,1-5.21,1.72c0-.07,0-.14,0-.21A3.2,3.2,0,0,1,52.62,5.83Z"/><path class="cls-1" d="M11.06,36.94H27.47a4.83,4.83,0,1,0-4.73-5.8,1,1,0,0,0,2,.4,2.83,2.83,0,1,1,2.77,3.4H11.06a1,1,0,0,0,0,2Z"/><path class="cls-1" d="M9.1,35.94a1,1,0,0,0-1-1h-2a1,1,0,0,0,0,2h2A1,1,0,0,0,9.1,35.94Z"/><path class="cls-1" d="M22.34,38.25H8.42a1,1,0,1,0,0,2H22.34a1,1,0,0,0,0-2Z"/><path class="cls-1" d="M28,38.25H25.55a1,1,0,0,0,0,2H28a1,1,0,1,0,0-2Z"/></svg>