<svg id="Warstwa_1" data-name="Warstwa 1" xmlns="http://www.w3.org/2000/svg" viewBox="0 0 15.82 21.16"><defs><style>.cls-1{fill:#57585f;}</style></defs><title>kobieta_1</title><path class="cls-1" d="M14.58,17.41a7.48,7.48,0,0,0-4.05-3.57,4.72,4.72,0,0,0-.36-8.11,2.34,2.34,0,1,0-4.52,0,4.72,4.72,0,0,0-.36,8.11,7.48,7.48,0,0,0-4.05,3.57.65.65,0,1,0,1.15.6,6.21,6.21,0,0,1,11,0,.65.65,0,1,0,1.15-.6ZM6.87,5.14A1,1,0,0,1,9,5.14a1,1,0,0,1,0,.1,4.51,4.51,0,0,0-2.05,0A1,1,0,0,1,6.87,5.14ZM4.46,9.88a3.45,3.45,0,1,1,3.45,3.45A3.46,3.46,0,0,1,4.46,9.88Z"/></svg>