<svg id="Warstwa_1" data-name="Warstwa 1" xmlns="http://www.w3.org/2000/svg" viewBox="0 0 17.99 18.95"><defs><style>.cls-1{fill:#a9aab9;}</style></defs><title>message_topmenu</title><path class="cls-1" d="M12.57,5.7H5.42a.77.77,0,1,0,0,1.53h7.15a.77.77,0,0,0,0-1.53Z"/><path class="cls-1" d="M12.57,8.9H5.42a.77.77,0,1,0,0,1.53h7.15a.77.77,0,0,0,0-1.53Z"/><path class="cls-1" d="M16.23,1.14H8.53a.77.77,0,0,0,0,1.53h6.93V13.46H8.65a.76.76,0,0,0-.44.14l-2.78,2V14.22a.77.77,0,0,0-.77-.77H2.53V2.67h3a.77.77,0,0,0,0-1.53H1.76A.77.77,0,0,0,1,1.91V14.22a.77.77,0,0,0,.77.77H3.9V17a.77.77,0,0,0,1.21.63L8.9,15h7.33a.77.77,0,0,0,.77-.77V1.91A.77.77,0,0,0,16.23,1.14Z"/></svg>