<svg id="Warstwa_1" data-name="Warstwa 1" xmlns="http://www.w3.org/2000/svg" viewBox="0 0 35.4 28.07"><defs><style>.cls-1{fill:#57585f;}</style></defs><title>namiot_1</title><path class="cls-1" d="M26.83,8.9a2.49,2.49,0,1,0-2.49-2.49A2.49,2.49,0,0,0,26.83,8.9Zm0-3.77a1.29,1.29,0,1,1-1.29,1.29A1.29,1.29,0,0,1,26.83,5.13Z"/><path class="cls-1" d="M28.6,11.69a.68.68,0,0,0-.13.51.69.69,0,0,0,.68.59h.09a.69.69,0,0,0,.32-1.22.69.69,0,0,0-1,.13Z"/><circle class="cls-1" cx="21.59" cy="2.13" r="0.69"/><circle class="cls-1" cx="33.39" cy="5.89" r="0.69"/><path class="cls-1" d="M33,25.43H31.29l.78-1a.6.6,0,0,0-.94-.74l-1,1.25-12-16.64,1-1.35a.6.6,0,0,0-1-.7l-.74,1-.74-1a.6.6,0,1,0-1,.7l1,1.35-12,16.64-1-1.25a.6.6,0,0,0-.94.74l.78,1H1.93a.6.6,0,1,0,0,1.2H33a.6.6,0,0,0,0-1.2Zm-3.95,0H26.68L17.93,13.24l0,0a.58.58,0,0,0-.92,0l0,0L8.2,25.43H5.88L17.44,9.34ZM18,17.78l1.49,4.77L18,24.23Zm-1.2,7.64H9.67l7.17-10Zm3.81-2.33a.6.6,0,0,0,.12-.58L19,16.76l6.23,8.66H18.59Z"/></svg>