<svg id="Warstwa_1" data-name="Warstwa 1" xmlns="http://www.w3.org/2000/svg" viewBox="0 0 32.66 28.83"><defs><style>.cls-1{fill:#57585f;}</style></defs><title>narty_1</title><path class="cls-1" d="M21.23,7.29a2.38,2.38,0,1,0-1.88-.91A2.37,2.37,0,0,0,21.23,7.29Zm-.67-3.24a1.08,1.08,0,0,1,.67-.23h.13a1.08,1.08,0,0,1,.73.41h0a1.09,1.09,0,1,1-1.53-.18Z"/><path class="cls-1" d="M26,11.62l-5.53,1,.29-4a.64.64,0,0,0,0-.27.64.64,0,0,0-.36-.53l-.93-.41a2,2,0,0,0-2.57,1L15.4,11.85h0l-.87,1.89h0L6.37,15.25a.65.65,0,0,0,.12,1.29h.12L14,15.17a2,2,0,0,0,1.14,2.06l.88.4a.66.66,0,0,0,.23.06l2.8.18L14.79,22,8,19.43a.65.65,0,1,0-.46,1.22L22.19,26.2A2.18,2.18,0,0,0,25,24.83a.65.65,0,0,0-1.23-.41.87.87,0,0,1-1.09.56l-6.5-2.47L21,17.76a.65.65,0,0,0-.41-1.11l-4.15-.26L15.66,16a.68.68,0,0,1-.34-.89L17.69,10a.64.64,0,0,0,0-.09L18.11,9A.68.68,0,0,1,19,8.67l.52.23-.33,4.49a.65.65,0,0,0,.65.7h.12l6.35-1.17A.65.65,0,0,0,26,11.62Z"/></svg>