<svg id="Warstwa_1" data-name="Warstwa 1" xmlns="http://www.w3.org/2000/svg" viewBox="0 0 15.51 13.93"><defs><style>.cls-1{fill:#b7b8c4;}</style></defs><title>notification_type_3</title><path class="cls-1" d="M12.87.79H12a1.06,1.06,0,0,0-1,.66A19.9,19.9,0,0,1,2.59,3.89a1.06,1.06,0,0,0-1,1.06V6.76a1.06,1.06,0,0,0,1,1.06l.82.07,1.22,4.47a1.06,1.06,0,0,0,1,.78H7.53a.62.62,0,0,0,0-1.23L6.63,8.48A18,18,0,0,1,11,10.25a1.06,1.06,0,0,0,1,.66h.89a1.06,1.06,0,0,0,1.06-1.06v-8A1.06,1.06,0,0,0,12.87.79ZM11.53,4.35a.62.62,0,0,0-.62.62V8.8a21,21,0,0,0-6.32-2V4.91a21,21,0,0,0,6.32-2v.28a.62.62,0,0,0,1.23,0V2h.54V9.68h-.54V5A.62.62,0,0,0,11.53,4.35ZM6.28,11.9h-.5l-1-3.84.52.1ZM3.36,5.07V6.64l-.54,0V5.11Z"/></svg>