<svg id="Warstwa_1" data-name="Warstwa 1" xmlns="http://www.w3.org/2000/svg" viewBox="0 0 15.51 13.93"><defs><style>.cls-1{fill:#b7b8c4;}</style></defs><title>notification_type_2</title><path class="cls-1" d="M13.4,5.51A4.18,4.18,0,0,0,5.19,4.4a4.19,4.19,0,1,0,5.13,5.13,4.14,4.14,0,0,0,3.08-4Zm-9.15,5a2.87,2.87,0,0,1,.8-4.64A4.11,4.11,0,0,0,8.9,9.66a2.88,2.88,0,0,1-.55.8A3,3,0,0,1,4.26,10.46ZM6.33,5.53A2.88,2.88,0,0,1,9.18,8.36,2.83,2.83,0,0,1,6.33,5.53Zm4.93,2a2.72,2.72,0,0,1-.8.54A4.11,4.11,0,0,0,6.62,4.26a2.88,2.88,0,1,1,4.64,3.29Z"/></svg>