<svg id="Warstwa_1" data-name="Warstwa 1" xmlns="http://www.w3.org/2000/svg" viewBox="0 0 28.4 22.05"><defs><style>.cls-1{fill:#f4ae2e;}</style></defs><title>rower_2</title><path class="cls-1" d="M9.18,11.12a.59.59,0,0,0,0,.84,4.26,4.26,0,1,1-2.94-1.18.59.59,0,0,0,0-1.18A5.44,5.44,0,1,0,10,11.1.59.59,0,0,0,9.18,11.12Z"/><path class="cls-1" d="M12.93,12.75a.59.59,0,0,0,.15-.82L10.65,8.4l.27,0h0a.65.65,0,0,0,0-1.3L7.5,6.9a.66.66,0,0,0-.69.61.65.65,0,0,0,.61.69l1,.06L6,14a1,1,0,1,0,1.26,1,1,1,0,0,0-.17-.55L9.48,8.78l2.63,3.82a.59.59,0,0,0,.82.15Z"/><path class="cls-1" d="M22.13,9.6a.59.59,0,1,0,0,1.18,4.26,4.26,0,1,1-2.71,1,.59.59,0,0,0,.08-.83.59.59,0,0,0-.83-.08A5.44,5.44,0,1,0,22.13,9.6Z"/><path class="cls-1" d="M16,14.23v-.07a.14.14,0,0,0,0,0l0,0a1.85,1.85,0,0,0-.18-.39,1.89,1.89,0,0,0-.1-.18,1.86,1.86,0,0,0-.25-.27,1.89,1.89,0,0,0-.19-.18,1.92,1.92,0,0,0-.26-.14,1.86,1.86,0,0,0-.31-.14l-.06,0h-.13a1.83,1.83,0,0,0-.35-.06,1.83,1.83,0,0,0-.35.06h-.13l-.06,0a1.82,1.82,0,0,0-.31.14,1.89,1.89,0,0,0-.26.14,1.85,1.85,0,0,0-.19.18,1.9,1.9,0,0,0-.25.27,2,2,0,0,0-.1.18,1.9,1.9,0,0,0-.18.39l0,0a.14.14,0,0,0,0,0v.07a1.84,1.84,0,0,0-.06.37,1.83,1.83,0,0,0,.06.39V15a.14.14,0,0,0,0,0l0,0a1.86,1.86,0,0,0,.17.39,1.94,1.94,0,0,0,.09.18,1.89,1.89,0,0,0,.2.22,1.9,1.9,0,0,0,.23.23l.05,0a1.9,1.9,0,0,0,.49.25v1.14a.59.59,0,0,0,.15,1.16h.88a.59.59,0,0,0,.15-1.16V16.41a1.88,1.88,0,0,0,.5-.26l0,0a1.88,1.88,0,0,0,.23-.23,1.91,1.91,0,0,0,.2-.21,1.88,1.88,0,0,0,.09-.18,1.87,1.87,0,0,0,.17-.39l0,0a.14.14,0,0,0,0,0V15a1.84,1.84,0,0,0,.06-.39A1.81,1.81,0,0,0,16,14.23Zm-1.85,1.1a.73.73,0,1,1,.73-.73A.73.73,0,0,1,14.2,15.33Z"/><path class="cls-1" d="M21.28,14.46a1,1,0,0,0-.18.58,1,1,0,1,0,1.29-1L18.72,4.25h0l-.87-2.18s0,0,0,0A.65.65,0,0,0,17,1.6l-3,1a.65.65,0,1,0,.39,1.24L16.93,3l2,5.3L15.67,12a.59.59,0,0,0,0,.83.61.61,0,0,0,.83,0l2.89-3.25Z"/></svg>