<svg id="Warstwa_1" data-name="Warstwa 1" xmlns="http://www.w3.org/2000/svg" viewBox="0 0 34.97 20"><defs><style>.cls-1{fill:#57585f;}</style></defs><title>samolot_1</title><path class="cls-1" d="M17.49,10.49c-1.44,0-2.58.85-2.58,1.93a.64.64,0,1,0,1.29,0c0-.26.51-.64,1.29-.64s1.29.39,1.29.64a.64.64,0,1,0,1.29,0C20.06,11.34,18.93,10.49,17.49,10.49Z"/><path class="cls-1" d="M31.37,12.25l-9-1.7a5.8,5.8,0,0,0-1.91-2.87l2.93-.42A.64.64,0,1,0,23.19,6l-3.92.56-1-4.43a.82.82,0,0,0-1.61,0l-1,4.43L11.78,6a.64.64,0,0,0-.18,1.27l2.93.42a5.8,5.8,0,0,0-1.91,2.86l-9,1.7A1.93,1.93,0,0,0,2,14.15V15a.64.64,0,0,0,.64.64H7.44a1.91,1.91,0,0,0-.26.94,1.93,1.93,0,0,0,3.86,0,1.91,1.91,0,0,0-.26-.94H13a.64.64,0,0,0,.21,0,5,5,0,0,0,4.29,2.6,5,5,0,0,0,4.29-2.6.63.63,0,0,0,.21,0h2.19a1.91,1.91,0,0,0-.26.94,1.93,1.93,0,1,0,3.86,0,1.91,1.91,0,0,0-.25-.94h4.76a.64.64,0,0,0,.64-.64v-.86A1.93,1.93,0,0,0,31.37,12.25Zm-22.25,5a.64.64,0,1,1,.64-.64A.65.65,0,0,1,9.12,17.24Zm16.74,0a.64.64,0,1,1,.64-.64A.65.65,0,0,1,25.86,17.24ZM17.49,4.44,18,6.65l-.49,0-.49,0ZM3.32,14.37v-.22a.64.64,0,0,1,.52-.63l8.51-1.61c0,.17,0,.34,0,.52a6.41,6.41,0,0,0,.31,1.95Zm14.16,2.56c-2.13,0-3.86-2-3.86-4.51s1.73-4.51,3.86-4.51,3.86,2,3.86,4.51S19.62,16.93,17.49,16.93Zm14.16-2.56H22.33a6.4,6.4,0,0,0,.31-1.95c0-.17,0-.34,0-.51l8.51,1.61a.64.64,0,0,1,.52.63Z"/></svg>