<svg id="Warstwa_1" data-name="Warstwa 1" xmlns="http://www.w3.org/2000/svg" viewBox="0 0 17.02 17.9"><defs><style>.cls-1{fill:#b7b8c4;}</style></defs><title>star_userinfo_2</title><path class="cls-1" d="M5.21,15.6a1.59,1.59,0,0,1-1.56-1.85l.49-2.85-2.07-2A1.58,1.58,0,0,1,3,6.18l2.86-.42L7.09,3.18a1.58,1.58,0,0,1,2.84,0l1.28,2.59,2.86.42a1.58,1.58,0,0,1,.88,2.7l-2.07,2,.49,2.85a1.57,1.57,0,0,1-.63,1.55,1.6,1.6,0,0,1-1.67.12L8.51,14.07,6,15.41A1.59,1.59,0,0,1,5.21,15.6Zm3.29-2.89a.84.84,0,0,1,.39.09l2.77,1.46a.28.28,0,0,0,.3,0,.28.28,0,0,0,.11-.28l-.53-3.09a.83.83,0,0,1,.24-.74L14,8a.28.28,0,0,0-.16-.48L10.78,7a.83.83,0,0,1-.63-.46L8.76,3.76a.29.29,0,0,0-.51,0L6.87,6.56A.84.84,0,0,1,6.24,7l-3.1.45A.28.28,0,0,0,3,8l2.24,2.19a.84.84,0,0,1,.24.74L4.94,14a.28.28,0,0,0,.41.3l2.77-1.46A.84.84,0,0,1,8.51,12.71Zm4.19-1.64h0Zm.13-.41h0ZM11.31,6h0Z"/></svg>