<svg id="Warstwa_1" data-name="Warstwa 1" xmlns="http://www.w3.org/2000/svg" viewBox="0 0 24.54 22.33"><defs><style>.cls-1{fill:#f4ae2e;}</style></defs><title>transport</title><path class="cls-1" d="M18.41,8.24A14.1,14.1,0,0,0,10,5.51a14.81,14.81,0,0,0-5.18.91H2.72a.66.66,0,0,0-.46,1.12l.3.3a4.48,4.48,0,0,0-1.4,3.33c0,.93,0,3.23,1.1,3.73A2.92,2.92,0,0,0,7.7,15h8.22a2.92,2.92,0,0,0,5.41,0h.48a1.68,1.68,0,0,0,1.56-1.56V11.62C23.38,10.7,21.9,8.35,18.41,8.24Zm.22,4A1.62,1.62,0,1,1,17,13.89,1.62,1.62,0,0,1,18.63,12.28Zm0-1.31a2.92,2.92,0,0,0-2.91,2.73H7.9a2.91,2.91,0,0,0-5.39-1.33c0-.32,0-.71,0-1.19A3.27,3.27,0,0,1,3.91,8.4a.66.66,0,0,0,.26-.48.62.62,0,0,0,0-.19h.79a.64.64,0,0,0,.25-.05A13.32,13.32,0,0,1,10,6.82a12.76,12.76,0,0,1,7.75,2.57.66.66,0,0,0,.43.16c2.79,0,3.89,1.77,3.89,2.07v1.82c0,.09-.2.24-.25.25h-.27A2.92,2.92,0,0,0,18.63,11ZM5,12.28a1.62,1.62,0,1,1-1.62,1.62A1.62,1.62,0,0,1,5,12.28Z"/></svg>