<svg id="Warstwa_1" data-name="Warstwa 1" xmlns="http://www.w3.org/2000/svg" viewBox="0 0 26.79 28.07"><defs><style>.cls-1{fill:#f4ae2e;}</style></defs><title>trudnosc_1</title><path class="cls-1" d="M19.6,4.85A11.08,11.08,0,1,0,24.48,14,11,11,0,0,0,19.6,4.85ZM13.4,23.92A9.88,9.88,0,1,1,23.28,14,9.89,9.89,0,0,1,13.4,23.92Z"/><path class="cls-1" d="M18.37,8.21l-3.05,3.05a3.48,3.48,0,0,0-4.32.38,3.39,3.39,0,1,0,5.17.47l3-3a.6.6,0,0,0-.85-.85Zm-3.43,7.37a2.23,2.23,0,0,1-3.09,0,2.19,2.19,0,1,1,3.09,0Z"/><path class="cls-1" d="M13.4,21.27A7.24,7.24,0,0,1,6.17,14,.6.6,0,1,0,5,14a8.44,8.44,0,0,0,8.43,8.43.6.6,0,1,0,0-1.2Z"/></svg>