<svg id="Warstwa_1" data-name="Warstwa 1" xmlns="http://www.w3.org/2000/svg" viewBox="0 0 21.66 22.3"><defs><style>.cls-1{fill:#f5ae2c;}</style></defs><title>usermenu_recencje</title><path class="cls-1" d="M6.89,19.07a1.87,1.87,0,0,1-1.84-2.18l.59-3.42L3.16,11.06a1.87,1.87,0,0,1,1-3.18l3.43-.5L9.16,4.27a1.87,1.87,0,0,1,3.35,0L14,7.38l3.43.5a1.87,1.87,0,0,1,1,3.18L16,13.48l.59,3.42a1.85,1.85,0,0,1-.74,1.83,1.89,1.89,0,0,1-2,.14l-3.07-1.61L7.76,18.86A1.87,1.87,0,0,1,6.89,19.07ZM10.83,4.73a.36.36,0,0,0-.33.2L8.84,8.29a1,1,0,0,1-.73.53l-3.7.54a.37.37,0,0,0-.2.62L6.89,12.6a1,1,0,0,1,.28.86l-.63,3.69a.36.36,0,0,0,.15.36.35.35,0,0,0,.39,0l3.31-1.74a1,1,0,0,1,.91,0l3.31,1.74a.37.37,0,0,0,.53-.39l-.63-3.69a1,1,0,0,1,.28-.86L17.45,10a.37.37,0,0,0-.2-.62l-3.7-.54a1,1,0,0,1-.73-.54L11.16,4.93A.36.36,0,0,0,10.83,4.73Zm3.33,2.89h0Z"/></svg>