<svg id="Warstwa_1" data-name="Warstwa 1" xmlns="http://www.w3.org/2000/svg" viewBox="0 0 21.66 22.3"><defs><style>.cls-1{fill:#f5ae2c;}</style></defs><title>usermenu_edytuj_profil</title><path class="cls-1" d="M12.75,14a.75.75,0,0,0-.15-1A7.45,7.45,0,0,0,10.91,12a4.78,4.78,0,1,0-5.59,0,7.46,7.46,0,0,0-3.85,3.49.75.75,0,0,0,1.33.69,6,6,0,0,1,8.9-2A.75.75,0,0,0,12.75,14ZM8.12,4.84A3.28,3.28,0,1,1,4.84,8.12,3.28,3.28,0,0,1,8.12,4.84Z"/><path class="cls-1" d="M20.25,12.89l-.68.16.66-.27a2.26,2.26,0,0,0-.12-.42,3,3,0,0,0-1.68-1.64,2.16,2.16,0,0,0-.56-.13,1.2,1.2,0,0,0-1,.36l-4.21,4.22a1.28,1.28,0,0,0-.33.61c-.11.5-.22,1-.33,1.55l-.06.29a1.11,1.11,0,0,0,.3,1A1.09,1.09,0,0,0,13,19l.23,0L15,18.56a1.28,1.28,0,0,0,.65-.35L19.9,14a1.29,1.29,0,0,0,.38-.82A1.23,1.23,0,0,0,20.25,12.89Zm-5.5,4.29-1.37.29c.1-.46.19-.92.26-1.32L17.79,12l.11,0a1.62,1.62,0,0,1,.91.9.7.7,0,0,1,0,.14Z"/></svg>