<svg id="Warstwa_1" data-name="Warstwa 1" xmlns="http://www.w3.org/2000/svg" viewBox="0 0 21.66 22.3"><defs><style>.cls-1{fill:#f5ae2c;}</style></defs><title>usermenu_ustawienia</title><path class="cls-1" d="M18.64,11.44,18,11.1q0-.19,0-.37l.59-.4a1.78,1.78,0,0,0,.62-2.21l-.59-1.29a1.78,1.78,0,0,0-2.1-1L15.91,6l-.26-.25.13-.71a1.77,1.77,0,0,0-1.13-2l-1.35-.5a1.83,1.83,0,0,0-2.17.78l-.34.59h-.43L10,3.36a1.8,1.8,0,0,0-2.21-.62l-1.29.59a1.77,1.77,0,0,0-1,2.08l.18.69-.25.27-.7-.14a1.81,1.81,0,0,0-2,1l0,.08-.5,1.35A1.78,1.78,0,0,0,3,10.85l.6.35c0,.13,0,.26,0,.38L3,12a1.78,1.78,0,0,0-.62,2.21L3,15.48a1.78,1.78,0,0,0,1.62,1,1.63,1.63,0,0,0,.46-.06l.67-.18.28.26-.13.69a1.78,1.78,0,0,0,1.13,2l1.35.5A1.79,1.79,0,0,0,10.57,19l.35-.61h.33l.4.6a1.79,1.79,0,0,0,2.21.62L15.16,19a1.77,1.77,0,0,0,1-2.08L16,16.23l.26-.27.73.14a1.82,1.82,0,0,0,2-1.13l.5-1.35A1.78,1.78,0,0,0,18.64,11.44ZM15.59,6.05v.06h0Zm0,.06h0v0Zm.26,9.77h0Zm0,0h0ZM18,13.09l-.5,1.34a.28.28,0,0,1-.32.18l-1-.19a.87.87,0,0,0-.91.3,5.34,5.34,0,0,1-.65.69.86.86,0,0,0-.23.83l.28,1a.27.27,0,0,1-.15.33l-1.29.59a.29.29,0,0,1-.36-.1l-.61-.91a.85.85,0,0,0-.8-.37,6.39,6.39,0,0,1-.91,0,.89.89,0,0,0-.76.43l-.54.93a.32.32,0,0,1-.35.13l-1.35-.5a.28.28,0,0,1-.18-.32l.21-1.1a.88.88,0,0,0-.32-.79,5.75,5.75,0,0,1-.65-.6A.86.86,0,0,0,6,14.71l-.22,0L4.64,15a.28.28,0,0,1-.26-.16l-.59-1.29a.28.28,0,0,1,.09-.35l.9-.61a.86.86,0,0,0,.37-.82,5.54,5.54,0,0,1,0-.95.89.89,0,0,0-.43-.75l-.93-.54a.28.28,0,0,1-.13-.35L4.13,7.9v0a.32.32,0,0,1,.31-.18h0l1.1.21a.89.89,0,0,0,.79-.3l0,0a6.54,6.54,0,0,1,.58-.65.85.85,0,0,0,.28-.87L6.94,5a.27.27,0,0,1,.15-.33L8.38,4.1a.29.29,0,0,1,.36.1l.65,1a.87.87,0,0,0,.78.31,5.53,5.53,0,0,1,1,0A.89.89,0,0,0,11.9,5l.53-.92A.31.31,0,0,1,12.78,4l1.35.5a.28.28,0,0,1,.18.32l-.19,1a.84.84,0,0,0,.3.9,6,6,0,0,1,.69.65.87.87,0,0,0,.84.23L17,7.27a.28.28,0,0,1,.26.16l.59,1.29a.28.28,0,0,1-.09.35l-1,.66a.86.86,0,0,0-.3.76,6.15,6.15,0,0,1,0,1,.88.88,0,0,0,.43.75l.92.53A.28.28,0,0,1,18,13.09Z"/><path class="cls-1" d="M11.86,8.23A3.09,3.09,0,0,0,9.8,14h0a3.08,3.08,0,0,0,3.94-1.88,3.09,3.09,0,0,0-1.88-3.94Zm.47,3.44a1.59,1.59,0,1,1-.06-1.21A1.58,1.58,0,0,1,12.33,11.67Z"/></svg>