<svg id="Warstwa_1" data-name="Warstwa 1" xmlns="http://www.w3.org/2000/svg" viewBox="0 0 26.79 28.07"><defs><style>.cls-1{fill:#57585f;}</style></defs><title>zwierzeta_1</title><path class="cls-1" d="M9.78,11.26a.85.85,0,0,0-.13.2.58.58,0,0,0,0,.23.59.59,0,0,0,.17.42.6.6,0,0,0,.43.18.63.63,0,0,0,.23-.05.58.58,0,0,0,.19-.13.48.48,0,0,0,.13-.19.59.59,0,0,0,.05-.23.64.64,0,0,0-.18-.43A.63.63,0,0,0,9.78,11.26Z"/><path class="cls-1" d="M16.16,11.29a.62.62,0,0,0-.18.42.6.6,0,0,0,.18.43.69.69,0,0,0,.2.13.54.54,0,0,0,.22,0,.56.56,0,0,0,.23,0,.68.68,0,0,0,.2-.13.6.6,0,0,0,.18-.43.62.62,0,0,0-.18-.42A.63.63,0,0,0,16.16,11.29Z"/><path class="cls-1" d="M23,4.51A2.07,2.07,0,0,0,21.2,3.43H16.72A2.07,2.07,0,0,0,14.9,4.51s0,.08,0,.12a6.53,6.53,0,0,0-1.41-.17,6.44,6.44,0,0,0-1.51.18s0-.06,0-.09a2.07,2.07,0,0,0-1.82-1.08H5.6A2.07,2.07,0,0,0,3.86,6.69L6.08,10.1a9,9,0,0,0-.65,3.25v3.41s0,0,0,0v1.87A4.29,4.29,0,0,0,9.68,23h0a4.29,4.29,0,0,0,.84-.08,3.39,3.39,0,0,0,2.84,1.76h0a3.4,3.4,0,0,0,2.85-1.76A4.26,4.26,0,0,0,17,23h0a4.29,4.29,0,0,0,4.28-4.27V17.44a.56.56,0,0,0,0-.13v-3.9A9.09,9.09,0,0,0,20.72,10l2.22-3.41A2.07,2.07,0,0,0,23,4.51Zm-18.2.63a.87.87,0,0,1,.77-.46h4.48A.88.88,0,0,1,10.81,6L8.57,9.48a.87.87,0,0,1-1.47,0L4.86,6A.87.87,0,0,1,4.83,5.14Zm8.55,18.31h0a2.14,2.14,0,0,1-1.68-1,4.29,4.29,0,0,0,1.68-1.62,4.28,4.28,0,0,0,1.69,1.62A2.14,2.14,0,0,1,13.38,23.45Zm0-5.4a.85.85,0,1,1,.85-.85A.85.85,0,0,1,13.37,18Zm6.77.65a3.08,3.08,0,0,1-6.12.44,2,2,0,1,0-1.3,0,3.08,3.08,0,0,1-3,2.63h0a3.09,3.09,0,0,1-3.07-3.09V17.3s0,0,0,0v-3.9a7.75,7.75,0,0,1,.43-2.45,2,2,0,0,0,2.51-.78l2.24-3.44a2,2,0,0,0,.3-.85,6.54,6.54,0,0,1,1.32-.17,5.32,5.32,0,0,1,1.24.15h0a2.05,2.05,0,0,0,.29.81l2.24,3.44a2,2,0,0,0,2.51.78,7.77,7.77,0,0,1,.45,2.55v3.3a.5.5,0,0,0,0,.12ZM21.93,6,19.69,9.42a.87.87,0,0,1-1.47,0L16,6a.88.88,0,0,1,.73-1.35H21.2A.88.88,0,0,1,21.93,6Z"/></svg>