<svg id="Warstwa_1" data-name="Warstwa 1" xmlns="http://www.w3.org/2000/svg" viewBox="0 0 35.57 28.07"><defs><style>.cls-1{fill:#57585f}</style></defs><path class="cls-1" d="M7.86 9.29a.54.54 0 0 0 .26-.73.56.56 0 0 1 .49-.8A.55.55 0 0 0 9.1 7a1 1 0 0 1-.1-.41 1 1 0 0 1 1-1 .55.55 0 0 0 .54-.47 1.69 1.69 0 0 1 2.19-1.33.55.55 0 0 0 .65-.24 2.3 2.3 0 1 1 .6 3 .55.55 0 0 0-.69 0 1.68 1.68 0 0 1-1.74.3.55.55 0 0 0-.68.23 1 1 0 0 1-1.11.5.55.55 0 0 0-.65.63.54.54 0 0 1-.47.65.55.55 0 0 0 .14 1.14h.08a1.67 1.67 0 0 0 1.37-1.3 2.13 2.13 0 0 0 1.38-.7 2.76 2.76 0 0 0 2.13-.37 3.38 3.38 0 1 0 1.66-6.32 3.33 3.33 0 0 0-2.67 1.31A2.8 2.8 0 0 0 9.62 4.5a2.12 2.12 0 0 0-1.7 2.08 2.08 2.08 0 0 0 0 .24 1.67 1.67 0 0 0-1 1.5 1.64 1.64 0 0 0 .21.68.55.55 0 0 0 .73.29zm1.55-1.11zm-.63 1.53zM33 25.56h-2.34a2.47 2.47 0 0 0-3-1.94v-1.94c1.4-.48 2.34-2.59 2.34-5.29 0-2.11-.85-7.18-2.94-7.18s-2.94 5.07-2.94 7.18c0 2.69 1 4.81 2.34 5.29v.82a3.28 3.28 0 0 0-2-.71A3 3 0 0 0 22 23.06v-4.32a1.7 1.7 0 0 0 .51-3.07L14.6 10.5a1.62 1.62 0 0 0-.95-.26 1.63 1.63 0 0 0-1 .26L10 12.23V11.1a.6.6 0 0 0-.6-.6H6.91a.6.6 0 0 0-.6.6v3.52l-1.55 1a1.7 1.7 0 0 0 .51 3.07v6.82H2.61a.6.6 0 1 0 0 1.2H33a.6.6 0 0 0 0-1.2zm-7.6-9.17c0-3 1.19-6 1.74-6s1.74 3 1.74 6a5.89 5.89 0 0 1-1.14 3.89V20a.6.6 0 1 0-1.2 0v.31a5.89 5.89 0 0 1-1.18-3.92zm-.9 6.6a2.09 2.09 0 0 1 2 1.43 2.12 2.12 0 0 1 .06.22 2.67 2.67 0 0 0 .09.2l.07.06.07.06.12.07h.3a.59.59 0 0 0 .28-.1 1.3 1.3 0 0 1 2 .55h-7c-.03-1.42.82-2.48 1.97-2.48zM7.51 11.7h1.33V13l-1.33.87zM5.2 17a.5.5 0 0 1 .22-.32l7.92-5.17a.5.5 0 0 1 .29-.06.53.53 0 0 1 .29.06l7.92 5.17a.5.5 0 0 1-.55.84L14 12.72a.6.6 0 0 0-.66 0L6 17.52a.5.5 0 0 1-.8-.52zm1.27 1.6l.15-.08 7-4.58 7 4.58.15.07v7H6.47z"/><path class="cls-1" d="M16.73 17.44h-6.18a.6.6 0 0 0-.6.6v4.42a.6.6 0 0 0 .6.6h6.19a.6.6 0 0 0 .6-.6V18a.6.6 0 0 0-.61-.56zm-5.59 1.2H13v3.22h-1.85zm5 3.22h-1.9v-3.22h1.89z"/></svg>