<svg id="Warstwa_1" data-name="Warstwa 1" xmlns="http://www.w3.org/2000/svg" viewBox="0 0 25.8 27.17"><defs><style>.cls-1{fill:#57585f}</style></defs><path class="cls-1" d="M20.84 6.74h-.14v-.42a3.07 3.07 0 0 0-3.08-2.92H8.18a3.07 3.07 0 0 0-3.07 2.93v.42H5A2.24 2.24 0 0 0 2.71 9v.84a1.41 1.41 0 0 0 1.4 1.4h.76l-.41 8.53A2.21 2.21 0 0 0 6.06 22v.37a1.41 1.41 0 0 0 1.4 1.4h1.67a1.41 1.41 0 0 0 1.4-1.4v-.27h4.72v.27a1.41 1.41 0 0 0 1.4 1.4h1.67a1.41 1.41 0 0 0 1.4-1.4V22a2.21 2.21 0 0 0 1.59-2.24l-.41-8.53h.76a1.41 1.41 0 0 0 1.4-1.4V9a2.24 2.24 0 0 0-2.22-2.26zM16.39 22.1h2.21v.27a.27.27 0 0 1-.27.27h-1.67a.27.27 0 0 1-.27-.27zm2.7-1.1H6.71a1.11 1.11 0 0 1-1.1-1.16l.63-13.46a1.94 1.94 0 0 1 1.94-1.85h9.44a1.94 1.94 0 0 1 1.94 1.85l.64 13.42a1.11 1.11 0 0 1-1.11 1.2zm-11.9 1.1H9.4v.27a.27.27 0 0 1-.27.27H7.46a.27.27 0 0 1-.27-.27zm-2.26-12h-.82a.27.27 0 0 1-.27-.27V9A1.11 1.11 0 0 1 5 7.88zm15.83-2.22h.08A1.11 1.11 0 0 1 21.95 9v.84a.27.27 0 0 1-.27.27h-.81z"/><path class="cls-1" d="M17.62 5.07H8.18a1.4 1.4 0 0 0-1.4 1.34l-.3 6.76c0 1.55 3.23 2.24 6.42 2.24a16.18 16.18 0 0 0 4.31-.51c1.38-.4 2.11-1 2.11-1.75L19 6.41a1.4 1.4 0 0 0-1.38-1.34zm.57 8.09c-.06.27-1.77 1.11-5.29 1.11s-5.21-.83-5.29-1.08l.3-6.73a.27.27 0 0 1 .27-.26h9.44a.27.27 0 0 1 .27.25zM8.3 16.78a1.4 1.4 0 1 0 1.4 1.4 1.41 1.41 0 0 0-1.4-1.4zm0 1.14a.27.27 0 1 1-.27.27.27.27 0 0 1 .27-.27zm9.2-1.14a1.4 1.4 0 1 0 1.4 1.4 1.41 1.41 0 0 0-1.4-1.4zm.27 1.4a.27.27 0 1 1-.27-.27.27.27 0 0 1 .27.28z"/></svg>