<svg data-name="Warstwa 1" xmlns="http://www.w3.org/2000/svg" viewBox="0 0 25.8 20"><path d="M21.85 6.81h-3.48L9.82.59A2.25 2.25 0 0 0 8.63.13h-.38a2.27 2.27 0 0 0-1.6.87 2.18 2.18 0 0 0-.28 1.74C6.71 4.37 8.59 6 10.2 7.23H3a2 2 0 0 0-1.15 3.71 2 2 0 0 0-.38 1.18A2.05 2.05 0 0 0 2.62 14a2 2 0 0 0 .88 2.84 2 2 0 0 0 1.76 3.06h8.92a7.15 7.15 0 0 0 5.42-2.37h2.25a.61.61 0 0 0 .61-.61v-9.5a.61.61 0 0 0-.61-.61zM3.47 11.3h5.25a.82.82 0 0 1 0 1.64H3.47a.82.82 0 1 1 0-1.64zM3 8.44h5.72a.82.82 0 0 1 0 1.64H3a.82.82 0 0 1 0-1.64zm1.43 5.71h4.29a.82.82 0 0 1 0 1.64H4.39a.82.82 0 0 1 0-1.64zm6.37.82a2 2 0 0 0-.59-1.43 2 2 0 0 0 0-2.86 2 2 0 0 0 .41-2.25h1a8.42 8.42 0 0 0 .55 2.18 9.66 9.66 0 0 0 4.46 4.88.62.62 0 0 0 .82-.24.61.61 0 0 0-.24-.82 8.42 8.42 0 0 1-3.9-4.23 6.59 6.59 0 0 1-.52-2.37v-.05a.65.65 0 0 0 0-.1V7.5l-.06-.08-.07-.06-.09-.06c-1.25-.75-4.56-3.07-5-4.8a1 1 0 0 1 .1-.78 1.06 1.06 0 0 1 1.43-.16l8.49 6.19 1.66 4.31a4.59 4.59 0 0 1-.3 4.29 5.79 5.79 0 0 1-4.8 2.31H9.84a2 2 0 0 0-.14-1.9A2.05 2.05 0 0 0 10.75 15zm-5.5 2H8a.82.82 0 0 1 0 1.64H5.25a.82.82 0 0 1 0-1.64zm15.13-5.39L19 8h2.25v8.25h-.88a5.89 5.89 0 0 0 .01-4.63z" fill="#57585f"/></svg>