<svg id="Warstwa_1" data-name="Warstwa 1" xmlns="http://www.w3.org/2000/svg" viewBox="0 0 21.66 22.3"><defs><style>.cls-1{fill:#a9aab9}</style></defs><path class="cls-1" d="M17.92 3.09h-1.2V1.47a.7.7 0 0 0-1.4 0v1.62h-9V1.47a.7.7 0 1 0-1.4 0v1.62H3.74A2.84 2.84 0 0 0 .91 5.92V18.7a2.84 2.84 0 0 0 2.83 2.83h14.18a2.84 2.84 0 0 0 2.83-2.83V5.92a2.84 2.84 0 0 0-2.83-2.83zM3.74 4.49h14.18a1.44 1.44 0 0 1 1.43 1.43V7h-17V5.92a1.44 1.44 0 0 1 1.39-1.43zm14.18 15.64H3.74a1.44 1.44 0 0 1-1.43-1.43V8.38h17V18.7a1.44 1.44 0 0 1-1.39 1.43z"/><path class="cls-1" d="M16.5 11.56H5.16a.7.7 0 0 0 0 1.4H16.5a.7.7 0 0 0 0-1.4zm-4.44 3.72h-6.9a.7.7 0 0 0 0 1.4h6.9a.7.7 0 0 0 0-1.4z"/></svg>