<svg data-name="Warstwa 1" xmlns="http://www.w3.org/2000/svg" viewBox="0 0 15.51 13.93"><path d="M12.87.79H12a1.06 1.06 0 0 0-1 .66 19.9 19.9 0 0 1-8.41 2.44 1.06 1.06 0 0 0-1 1.06v1.81a1.06 1.06 0 0 0 1 1.06l.82.07 1.22 4.47a1.06 1.06 0 0 0 1 .78h1.9a.62.62 0 0 0 0-1.23l-.9-3.43A18 18 0 0 1 11 10.25a1.06 1.06 0 0 0 1 .66h.89a1.06 1.06 0 0 0 1.06-1.06v-8A1.06 1.06 0 0 0 12.87.79zm-1.34 3.56a.62.62 0 0 0-.62.62V8.8a21 21 0 0 0-6.32-2V4.91a21 21 0 0 0 6.32-2v.28a.62.62 0 0 0 1.23 0V2h.54v7.68h-.54V5a.62.62 0 0 0-.61-.65zM6.28 11.9h-.5l-1-3.84.52.1zM3.36 5.07v1.57h-.54V5.11z" fill="#b7b8c4"/></svg>