<svg data-name="Warstwa 1" xmlns="http://www.w3.org/2000/svg" viewBox="0 0 25.8 20"><path d="M24.57 12.36v-.42c0-2.59-.12-3.71-.9-3.94-.17-.05-.27-.17-.49-.5L23 7.25c-.32-.44-.9-.46-1.46-.48h-.46l-.19-.42h.63a.58.58 0 0 0 0-1.17h-1.2a10.88 10.88 0 0 0-1.83-2.9c-.8-.49-5.56-.57-5.61-.57s-4.81.08-5.61.57a10.87 10.87 0 0 0-1.83 2.9H4.26a.58.58 0 0 0 0 1.17h.63l-.19.42h-.46c-.56 0-1.15 0-1.46.48l-.17.24c-.22.33-.31.45-.49.5-.78.23-.9 1.35-.9 3.94v.42a9 9 0 0 0 .48 3.06v1.29a1.55 1.55 0 0 0 1.55 1.6h1.93a1.55 1.55 0 0 0 1.55-1.55v-.52c2.05.09 4.38.14 6.17.14s4.13-.05 6.18-.14v.52a1.55 1.55 0 0 0 1.55 1.55h1.93a1.55 1.55 0 0 0 1.55-1.55v-1.31a9.14 9.14 0 0 0 .47-3 .35.35 0 0 0-.01-.08zm-2 4.77h-1.95a.38.38 0 0 1-.38-.38v-.57c1.1-.06 2-.12 2.69-.2v.77a.38.38 0 0 1-.38.39zM12.9 2.86a31.35 31.35 0 0 1 5 .38 20.65 20.65 0 0 1 1.67 2.93 33.73 33.73 0 0 0-6.65-.61 33.75 33.75 0 0 0-6.65.61 22.3 22.3 0 0 1 1.62-2.9 29.34 29.34 0 0 1 5.01-.41zM5.54 7.58a24.76 24.76 0 0 1 7.36-.86 24.75 24.75 0 0 1 7.36.86 1.83 1.83 0 0 0 1.27.35h.57l.12.18a2.14 2.14 0 0 0 1 .93 1.76 1.76 0 0 1 .09.38c-.6.09-3.19.46-4.13.46a1.33 1.33 0 0 0-1 .43 2.85 2.85 0 0 0-.55 1.87c-1.53.06-3.17.11-4.72.11s-3.19 0-4.72-.11a2.86 2.86 0 0 0-.55-1.87 1.33 1.33 0 0 0-1-.43c-.89 0-3.3-.34-4.13-.46a1.79 1.79 0 0 1 .09-.37 2.15 2.15 0 0 0 1-.93L3.67 8a3.55 3.55 0 0 1 .6 0 1.83 1.83 0 0 0 1.27-.42zm13.25 4.57a1.83 1.83 0 0 1 .24-1 .17.17 0 0 1 .15-.06c1 0 3.44-.35 4.22-.46v1.26c-.82.04-2.54.16-4.61.26zM6.63 11.07a.17.17 0 0 1 .15.06 1.82 1.82 0 0 1 .24 1c-2.07-.1-3.8-.22-4.63-.28v-1.27c.93.16 3.28.49 4.24.49zm6.27 2.41c4.08 0 8.76-.31 10.47-.43a11 11 0 0 1-.24 1.75c-1.08.15-5.61.41-10.23.41s-9.29-.27-10.23-.4A10.55 10.55 0 0 1 2.43 13c1.82.18 6.42.48 10.47.48zM2.87 16c.65.07 1.6.14 2.69.2v.57a.38.38 0 0 1-.38.38H3.25a.38.38 0 0 1-.38-.38z" fill="#f4ae2e"/></svg>