<svg data-name="Warstwa 1" xmlns="http://www.w3.org/2000/svg" viewBox="0 0 32.66 28.83"><path d="M15 6.09a2.37 2.37 0 0 0 1.44.49h.33a2.39 2.39 0 0 0 1.13-4.3A2.39 2.39 0 1 0 15 6.09zm.58-2.56a1.08 1.08 0 0 1 .72-.42h.15a1.08 1.08 0 0 1 .65.22 1.09 1.09 0 1 1-1.52.21zm10.51 3.63l-8.74-.22h-1a2 2 0 0 0-1.12.41L12.35 10a.66.66 0 0 0-.18.27l-1.45 4.15a.65.65 0 1 0 1.23.43l1.4-4 1.13-1 .12 2.37c-1 1.84-2.37 4.3-3 5.28l-4.69-3a.65.65 0 1 0-.71 1.09l17.66 11.34a.65.65 0 0 0 .71-1.09l-4.08-2.64 1.28-6.51a.65.65 0 0 0-.17-.58l-2-2-.26-5.25a2 2 0 0 0-.11-.55l6.79.17a.65.65 0 0 0 0-1.3zm-8.23 1.25a.69.69 0 0 1 .23.48l.27 5.5a.65.65 0 0 0 .18.42l1.89 2-1.12 5.67-6.6-4.27c.47-.74 1.34-2.27 3.11-5.53a.65.65 0 0 0 .08-.34L15.73 9a.69.69 0 0 1 .17-.48.68.68 0 0 1 .44-.19h1a.71.71 0 0 1 .52.08z" fill="#57585f"/></svg>