<svg id="Warstwa_1" data-name="Warstwa 1" xmlns="http://www.w3.org/2000/svg" viewBox="0 0 26.79 24.12"><defs><style>.cls-1{fill:#b7b8c4}</style></defs><path class="cls-1" d="M9.38 12.91a4 4 0 1 0 4-4 4 4 0 0 0-4 4zm6.64 0a2.62 2.62 0 1 1-2.62-2.62 2.62 2.62 0 0 1 2.6 2.62z"/><path class="cls-1" d="M19.76 6.44h-3a.7.7 0 0 0 0 1.4h3a1.1 1.1 0 0 1 1.1 1.1v8.5a1.1 1.1 0 0 1-1.1 1.1H7a1.1 1.1 0 0 1-1.1-1.1v-8.5A1.1 1.1 0 0 1 7 7.84h3a.7.7 0 0 0 .7-.7v-.46a1.1 1.1 0 0 1 1.1-1.1h2.34a.7.7 0 0 0 0-1.4h-2.27A2.49 2.49 0 0 0 9.4 6.44H7a2.5 2.5 0 0 0-2.5 2.5v8.5a2.5 2.5 0 0 0 2.5 2.5h12.76a2.5 2.5 0 0 0 2.5-2.5v-8.5a2.5 2.5 0 0 0-2.5-2.5z"/></svg>